<svg width="500" height="500" viewBox="0 0 500 500" fill="none" xmlns="http://www.w3.org/2000/svg">
<path d="M324.18 23.3599C324.18 23.3599 251.45 -2.51009 180.05 38.6699C108.65 79.8499 72.62 161.59 41.69 227.06C10.76 292.53 28.56 359.14 83.06 389.51C137.56 419.88 174.62 375.11 251.06 372.93C327.5 370.75 348.06 381.68 411.53 338.49C475 295.3 486.45 193.29 436.4 117.81C386.35 42.3299 324.18 23.3599 324.18 23.3599Z" fill="#92E3A9"/>
<path opacity="0.7" d="M324.18 23.3599C324.18 23.3599 251.45 -2.51009 180.05 38.6699C108.65 79.8499 72.62 161.59 41.69 227.06C10.76 292.53 28.56 359.14 83.06 389.51C137.56 419.88 174.62 375.11 251.06 372.93C327.5 370.75 348.06 381.68 411.53 338.49C475 295.3 486.45 193.29 436.4 117.81C386.35 42.3299 324.18 23.3599 324.18 23.3599Z" fill="white"/>
<path d="M454.36 398.16C450.36 397.59 442.75 392.63 442.74 392.63C442.73 392.63 447.53 388.63 447.86 388.39C451.75 385.9 460.72 383.39 464.71 386.66C465.358 387.225 465.88 387.92 466.241 388.699C466.602 389.479 466.796 390.327 466.808 391.186C466.82 392.045 466.651 392.898 466.312 393.688C465.973 394.477 465.471 395.187 464.84 395.77C462.25 398.33 457.77 398.65 454.36 398.16Z" fill="#92E3A9"/>
<path d="M379.77 359.77C379.67 359.77 381.54 353.77 381.7 353.41C383.57 349.19 389.7 342.14 394.8 342.68C395.65 342.793 396.468 343.084 397.198 343.534C397.929 343.983 398.557 344.582 399.041 345.29C399.525 345.999 399.854 346.801 400.007 347.645C400.16 348.49 400.134 349.357 399.93 350.19C399.19 353.77 395.63 356.51 392.51 357.98C388.85 359.71 379.77 359.77 379.77 359.77Z" fill="#92E3A9"/>
<path d="M372.3 459.83C370.53 462.03 368.92 464.1 367.48 466H363.84C365.67 463.65 367.84 461 370.22 458.12C371.62 456.44 373.15 454.68 374.74 452.88C373.302 451.108 371.966 449.255 370.74 447.33C367.49 448.42 360.85 448.13 359.99 448.09C359.74 450.22 359.52 452.31 359.34 454.27C358.92 458.72 358.67 462.67 358.5 466H355.5C355.74 462.6 356.09 458.56 356.61 454C356.86 451.82 357.16 449.51 357.5 447.13C356.66 446.88 349.85 444.75 347.35 442.54C345.08 440.54 342.75 437.34 343 434.14C343.034 433.386 343.225 432.648 343.563 431.973C343.9 431.299 344.376 430.702 344.958 430.223C345.541 429.744 346.218 429.393 346.945 429.193C347.673 428.992 348.434 428.947 349.18 429.06C353.65 429.87 357.05 437.32 357.59 441.34C357.59 441.58 357.68 444.19 357.69 445.84C357.83 444.84 357.96 443.93 358.11 442.93C358.41 440.93 358.77 439 359.11 436.93C359.33 435.93 359.55 434.93 359.77 433.86C359.99 432.79 360.31 431.77 360.58 430.71C361.25 428.28 362.05 425.84 362.91 423.4C361.18 423.14 355.06 422.1 352.5 420.45C349.94 418.8 347.17 416.01 346.93 412.81C346.844 412.057 346.918 411.294 347.147 410.571C347.376 409.849 347.755 409.183 348.259 408.616C348.763 408.05 349.381 407.597 350.072 407.285C350.763 406.974 351.512 406.812 352.27 406.81C356.81 406.93 361.27 413.81 362.45 417.68C362.52 417.92 363.02 420.8 363.27 422.39C363.8 420.93 364.32 419.47 364.9 418.01C366.58 413.8 368.41 409.58 370.22 405.37C370.77 404.08 371.31 402.78 371.85 401.49C371.24 401.4 363.94 400.33 361.07 398.49C358.53 396.85 355.74 394.05 355.5 390.85C355.414 390.097 355.488 389.334 355.717 388.611C355.946 387.889 356.325 387.223 356.829 386.656C357.333 386.09 357.951 385.637 358.642 385.325C359.333 385.014 360.082 384.852 360.84 384.85C365.38 384.97 369.84 391.85 371.01 395.72C371.1 396.01 371.82 400.16 371.95 401.23C373.15 398.38 374.31 395.53 375.34 392.68C376.755 388.836 377.921 384.904 378.83 380.91C378.54 380.91 370.92 379.78 367.98 377.91C365.44 376.27 362.65 373.47 362.41 370.27C362.323 369.516 362.395 368.753 362.624 368.03C362.852 367.307 363.231 366.64 363.735 366.073C364.24 365.507 364.858 365.053 365.55 364.742C366.242 364.431 366.992 364.27 367.75 364.27C372.29 364.39 376.75 371.27 377.92 375.13C378 375.39 378.55 378.55 378.78 380.06H379.04C379.842 376.014 380.281 371.904 380.35 367.78C380.42 365.51 380.35 363.34 380.25 361.23C378.81 361.17 372.25 360.84 369.4 359.42C366.55 358 363.61 355.6 363.02 352.42C362.858 351.683 362.853 350.92 363.005 350.181C363.157 349.441 363.463 348.742 363.902 348.128C364.341 347.515 364.905 347 365.555 346.618C366.206 346.236 366.93 345.995 367.68 345.91C372.2 345.53 377.42 351.85 378.98 355.59C379.07 355.8 379.7 357.96 380.14 359.59C380.08 358.59 380.03 357.65 379.95 356.74C379.66 353.31 379.19 350.2 378.75 347.44C378.49 345.87 378.22 344.44 377.95 343.15C376.57 342.35 371.03 339.09 369.2 336.58C367.37 334.07 365.83 330.51 366.76 327.44C366.955 326.711 367.301 326.031 367.776 325.445C368.251 324.859 368.844 324.379 369.516 324.036C370.189 323.694 370.925 323.497 371.679 323.458C372.433 323.419 373.186 323.539 373.89 323.81C378.08 325.56 379.8 333.57 379.46 337.61C379.46 337.96 378.34 343.37 378.27 343.33L378.19 343.28C378.47 344.54 378.76 345.9 379.04 347.39C379.54 350.14 380.04 353.26 380.45 356.69C380.878 360.381 381.092 364.094 381.09 367.81C381.122 371.971 380.787 376.127 380.09 380.23C380.09 380.28 380.09 380.33 380.09 380.37C380.71 379.2 382.56 375.96 382.73 375.73C385.12 372.46 391.68 367.54 395.99 368.97C396.699 369.226 397.347 369.629 397.89 370.152C398.433 370.675 398.861 371.306 399.144 372.005C399.427 372.705 399.559 373.455 399.533 374.209C399.506 374.963 399.321 375.702 398.99 376.38C397.68 379.31 394.1 381 391.15 381.68C387.82 382.45 380.56 380.97 379.98 380.85C379.146 385.002 378.037 389.095 376.66 393.1C375.87 395.44 375 397.77 374.1 400.1C374.67 399.1 375.18 398.21 375.27 398.1C377.66 394.83 384.21 389.91 388.53 391.34C389.239 391.596 389.887 391.999 390.43 392.522C390.973 393.045 391.401 393.676 391.684 394.375C391.967 395.075 392.099 395.825 392.073 396.579C392.046 397.333 391.861 398.072 391.53 398.75C390.22 401.68 386.65 403.37 383.7 404.05C380.75 404.73 374.49 403.6 372.85 403.28C372.49 404.17 372.15 405.06 371.79 405.95C370.07 410.21 368.34 414.45 366.79 418.66C366.24 420.14 365.79 421.66 365.25 423.11C365.76 422.22 366.19 421.47 366.25 421.37C368.64 418.09 375.19 413.18 379.51 414.6C380.22 414.857 380.867 415.261 381.411 415.785C381.954 416.309 382.381 416.941 382.664 417.641C382.947 418.341 383.08 419.093 383.053 419.847C383.026 420.601 382.841 421.342 382.51 422.02C381.2 424.95 377.63 426.64 374.68 427.31C371.73 427.98 366.07 426.98 364.12 426.6C363.66 428.14 363.19 429.67 362.81 431.18C362.58 432.18 362.28 433.18 362.1 434.24C361.92 435.3 361.7 436.3 361.5 437.32C361.2 439.32 360.87 441.32 360.62 443.26C360.43 444.6 360.28 445.88 360.13 447.17C360.66 445.69 361.77 442.81 361.89 442.58C363.654 439.476 366.185 436.877 369.24 435.03C369.419 434.676 369.634 434.341 369.88 434.03C370.323 433.419 370.889 432.909 371.542 432.532C372.195 432.155 372.92 431.919 373.67 431.841C374.42 431.763 375.178 431.843 375.895 432.078C376.611 432.312 377.271 432.694 377.83 433.2C381.12 436.34 379.83 444.43 378.07 448.08C377.97 448.3 376.58 450.51 375.67 451.89C376.33 451.16 376.95 450.44 377.67 449.7C379.01 448.22 380.38 446.78 381.86 445.23L384.11 443.04C384.84 442.29 385.71 441.59 386.51 440.86C388.42 439.19 390.43 437.6 392.51 436.04C391.22 434.87 386.69 430.63 385.51 427.84C384.33 425.05 383.51 421.2 385.08 418.4C385.428 417.732 385.913 417.144 386.503 416.675C387.093 416.206 387.775 415.866 388.505 415.678C389.235 415.489 389.996 415.456 390.739 415.58C391.483 415.705 392.191 415.984 392.82 416.4C396.54 419.01 396.51 427.2 395.31 431.08C395.24 431.32 394.07 434 393.4 435.46C394.64 434.54 395.88 433.61 397.17 432.71C400.9 430.12 404.75 427.61 408.59 425.1L412.09 422.77C411.62 422.35 406.09 417.43 404.76 414.31C403.54 411.54 402.76 407.66 404.33 404.86C404.677 404.19 405.161 403.602 405.751 403.132C406.341 402.662 407.023 402.321 407.754 402.133C408.484 401.944 409.246 401.911 409.989 402.037C410.733 402.162 411.442 402.442 412.07 402.86C415.79 405.46 415.76 413.66 414.56 417.53C414.47 417.82 412.78 421.69 412.3 422.65C414.87 420.93 417.41 419.2 419.84 417.39C423.146 414.965 426.289 412.326 429.25 409.49C429.03 409.3 423.25 404.19 421.87 400.99C420.65 398.22 419.87 394.34 421.43 391.55C421.777 390.88 422.261 390.292 422.851 389.822C423.441 389.352 424.124 389.011 424.854 388.823C425.584 388.634 426.346 388.601 427.089 388.727C427.833 388.852 428.542 389.132 429.17 389.55C432.9 392.16 432.86 400.35 431.67 404.22C431.59 404.48 430.3 407.42 429.67 408.81C429.744 408.854 429.814 408.904 429.88 408.96C432.785 406.03 435.419 402.844 437.75 399.44C439.06 397.58 440.21 395.74 441.28 393.92C440.11 393.07 434.81 389.17 433.23 386.43C431.65 383.69 430.51 380.04 431.76 377.09C432.028 376.384 432.443 375.743 432.976 375.208C433.509 374.673 434.149 374.256 434.854 373.985C435.559 373.715 436.313 373.595 437.067 373.636C437.821 373.676 438.558 373.875 439.23 374.22C443.23 376.4 444.08 384.55 443.32 388.53C443.32 388.75 442.61 390.91 442.11 392.47C442.58 391.64 443.11 390.79 443.52 389.99C445.17 386.99 446.52 384.12 447.65 381.57C448.29 380.12 448.85 378.8 449.35 377.57C448.63 376.15 445.82 370.36 445.68 367.26C445.54 364.16 446.21 360.34 448.68 358.26C449.244 357.758 449.907 357.38 450.627 357.151C451.346 356.923 452.106 356.849 452.856 356.934C453.606 357.019 454.33 357.261 454.98 357.644C455.631 358.028 456.193 358.544 456.63 359.16C459.16 362.93 456.18 370.56 453.63 373.74C453.42 374.02 449.53 377.93 449.49 377.86L449.44 377.77C448.98 378.98 448.44 380.27 447.89 381.67C446.79 384.24 445.52 387.14 443.89 390.2C442.217 393.518 440.347 396.734 438.29 399.83C436.012 403.315 433.425 406.588 430.56 409.61C430.529 409.646 430.496 409.679 430.46 409.71C431.62 409.07 434.95 407.4 435.22 407.3C439.02 405.89 447.22 405.4 450.01 408.97C450.46 409.576 450.778 410.27 450.942 411.007C451.106 411.744 451.113 412.508 450.962 413.247C450.811 413.987 450.506 414.687 450.066 415.301C449.626 415.915 449.062 416.429 448.41 416.81C445.71 418.53 441.8 417.96 438.96 416.9C435.76 415.7 430.52 410.47 430.1 410.05C427.115 413.054 423.931 415.854 420.57 418.43C418.57 419.95 416.57 421.43 414.57 422.86C415.57 422.34 416.52 421.86 416.66 421.86C420.46 420.45 428.66 419.96 431.45 423.53C431.9 424.136 432.218 424.83 432.382 425.567C432.546 426.304 432.553 427.068 432.402 427.807C432.251 428.547 431.946 429.247 431.506 429.861C431.066 430.475 430.502 430.989 429.85 431.37C427.15 433.09 423.24 432.53 420.4 431.47C417.56 430.41 412.96 426.01 411.77 424.84C410.99 425.38 410.21 425.94 409.42 426.48C405.64 429.08 401.85 431.66 398.21 434.31C396.93 435.24 395.71 436.21 394.47 437.17C395.39 436.7 396.16 436.32 396.28 436.28C400.08 434.87 408.28 434.38 411.07 437.95C411.521 438.555 411.839 439.249 412.004 439.986C412.169 440.722 412.176 441.485 412.026 442.225C411.876 442.965 411.572 443.665 411.133 444.279C410.694 444.893 410.131 445.408 409.48 445.79C406.77 447.51 402.86 446.95 400.02 445.88C397.18 444.81 393.02 440.88 391.61 439.47C390.38 440.47 389.14 441.47 388 442.56C387.23 443.29 386.44 443.94 385.71 444.72L383.51 446.96C382.17 448.44 380.78 449.96 379.51 451.42C378.62 452.42 377.78 453.42 376.94 454.42C378.21 453.48 380.72 451.69 380.94 451.56C384.49 449.56 392.49 447.87 395.81 450.97C396.348 451.501 396.768 452.139 397.043 452.842C397.317 453.546 397.441 454.3 397.405 455.055C397.369 455.809 397.175 456.548 396.835 457.223C396.494 457.897 396.016 458.493 395.43 458.97C392.91 461 389 461 386 460.42C382.74 459.74 377 455.55 376.26 455.03C374.87 456.67 373.53 458.28 372.3 459.83Z" fill="#92E3A9"/>
<path d="M328.36 398.16C324.36 397.59 316.75 392.63 316.74 392.63C316.73 392.63 321.53 388.63 321.86 388.39C325.75 385.9 334.72 383.39 338.71 386.66C339.358 387.225 339.88 387.92 340.241 388.699C340.602 389.479 340.796 390.327 340.808 391.186C340.82 392.045 340.651 392.898 340.312 393.688C339.973 394.477 339.471 395.187 338.84 395.77C336.25 398.33 331.77 398.65 328.36 398.16Z" fill="#92E3A9"/>
<path d="M253.77 359.77C253.67 359.77 255.54 353.77 255.7 353.41C257.57 349.19 263.7 342.14 268.8 342.68C269.65 342.793 270.468 343.084 271.198 343.534C271.929 343.983 272.557 344.582 273.041 345.29C273.525 345.999 273.854 346.801 274.007 347.645C274.16 348.49 274.134 349.357 273.93 350.19C273.19 353.77 269.63 356.51 266.51 357.98C262.85 359.71 253.77 359.77 253.77 359.77Z" fill="#92E3A9"/>
<path d="M246.3 459.83C244.53 462.03 242.92 464.1 241.48 466H237.84C239.67 463.65 241.84 461 244.22 458.12C245.62 456.44 247.15 454.68 248.74 452.88C247.302 451.108 245.966 449.255 244.74 447.33C241.49 448.42 234.85 448.13 233.99 448.09C233.74 450.22 233.52 452.31 233.34 454.27C232.92 458.72 232.67 462.67 232.5 466H229.55C229.79 462.6 230.14 458.56 230.66 454C230.91 451.82 231.21 449.51 231.55 447.13C230.71 446.88 223.9 444.75 221.4 442.54C219.13 440.54 216.8 437.34 217.05 434.14C217.084 433.386 217.275 432.648 217.613 431.973C217.95 431.299 218.426 430.702 219.008 430.223C219.591 429.744 220.268 429.393 220.995 429.193C221.723 428.992 222.484 428.947 223.23 429.06C227.7 429.87 231.1 437.32 231.64 441.34C231.64 441.58 231.73 444.19 231.74 445.84C231.88 444.84 232.01 443.93 232.16 442.93C232.46 440.93 232.82 439 233.16 436.93C233.38 435.93 233.6 434.93 233.82 433.86C234.04 432.79 234.36 431.77 234.63 430.71C235.3 428.28 236.1 425.84 236.96 423.4C235.23 423.14 229.11 422.1 226.55 420.45C223.99 418.8 221.22 416.01 220.98 412.81C220.894 412.057 220.968 411.294 221.197 410.571C221.426 409.849 221.805 409.183 222.309 408.616C222.813 408.05 223.431 407.597 224.122 407.285C224.813 406.974 225.562 406.812 226.32 406.81C230.86 406.93 235.32 413.81 236.5 417.68C236.57 417.92 237.07 420.8 237.32 422.39C237.85 420.93 238.32 419.47 238.95 418.01C240.63 413.8 242.46 409.58 244.27 405.37C244.82 404.08 245.36 402.78 245.9 401.49C245.29 401.4 237.99 400.33 235.12 398.49C232.58 396.85 229.79 394.05 229.55 390.85C229.464 390.097 229.538 389.334 229.767 388.611C229.996 387.889 230.375 387.223 230.879 386.656C231.383 386.09 232.001 385.637 232.692 385.325C233.383 385.014 234.132 384.852 234.89 384.85C239.43 384.97 243.89 391.85 245.06 395.72C245.15 396.01 245.87 400.16 246 401.23C247.2 398.38 248.36 395.53 249.39 392.68C250.805 388.836 251.971 384.904 252.88 380.91C252.59 380.91 244.97 379.78 242.03 377.91C239.49 376.27 236.7 373.47 236.46 370.27C236.373 369.516 236.445 368.753 236.674 368.03C236.902 367.307 237.281 366.64 237.785 366.073C238.29 365.507 238.908 365.053 239.6 364.742C240.292 364.431 241.042 364.27 241.8 364.27C246.34 364.39 250.8 371.27 251.97 375.13C252.05 375.39 252.6 378.55 252.83 380.06H253.09C253.892 376.014 254.331 371.904 254.4 367.78C254.47 365.51 254.4 363.34 254.3 361.23C252.86 361.17 246.3 360.84 243.45 359.42C240.6 358 237.66 355.6 237.07 352.42C236.908 351.683 236.903 350.921 237.054 350.183C237.206 349.444 237.51 348.745 237.949 348.132C238.387 347.518 238.949 347.004 239.599 346.621C240.248 346.238 240.971 345.996 241.72 345.91C246.25 345.53 251.47 351.85 253.03 355.59C253.12 355.8 253.75 357.96 254.19 359.59C254.13 358.59 254.08 357.65 254 356.74C253.71 353.31 253.24 350.2 252.8 347.44C252.54 345.87 252.27 344.44 252 343.15C250.62 342.35 245.08 339.09 243.25 336.58C241.42 334.07 239.88 330.51 240.81 327.44C241.005 326.711 241.351 326.031 241.826 325.445C242.301 324.859 242.894 324.379 243.566 324.036C244.239 323.694 244.976 323.497 245.729 323.458C246.483 323.419 247.236 323.539 247.94 323.81C252.13 325.56 253.85 333.57 253.51 337.61C253.51 337.96 252.39 343.37 252.32 343.33L252.24 343.28C252.52 344.54 252.81 345.9 253.09 347.39C253.59 350.14 254.14 353.26 254.5 356.69C254.928 360.381 255.142 364.094 255.14 367.81C255.156 371.973 254.804 376.129 254.09 380.23C254.09 380.28 254.09 380.33 254.09 380.37C254.71 379.2 256.56 375.96 256.73 375.73C259.12 372.46 265.68 367.54 269.99 368.97C270.699 369.226 271.347 369.629 271.89 370.152C272.433 370.675 272.861 371.306 273.144 372.005C273.427 372.705 273.559 373.455 273.533 374.209C273.506 374.963 273.321 375.702 272.99 376.38C271.68 379.31 268.1 381 265.15 381.68C261.82 382.45 254.56 380.97 253.98 380.85C253.146 385.002 252.037 389.095 250.66 393.1C249.87 395.44 249 397.77 248.1 400.1C248.67 399.1 249.18 398.21 249.27 398.1C251.66 394.83 258.21 389.91 262.53 391.34C263.239 391.596 263.887 391.999 264.43 392.522C264.973 393.045 265.401 393.676 265.684 394.375C265.967 395.075 266.099 395.825 266.073 396.579C266.046 397.333 265.861 398.072 265.53 398.75C264.22 401.68 260.65 403.37 257.7 404.05C254.75 404.73 248.49 403.6 246.85 403.28C246.49 404.17 246.15 405.06 245.79 405.95C244.07 410.21 242.34 414.45 240.79 418.66C240.24 420.14 239.79 421.66 239.25 423.11C239.76 422.22 240.19 421.47 240.25 421.37C242.64 418.09 249.19 413.18 253.51 414.6C254.22 414.857 254.867 415.261 255.411 415.785C255.954 416.309 256.381 416.941 256.664 417.641C256.947 418.341 257.08 419.093 257.053 419.847C257.026 420.601 256.841 421.342 256.51 422.02C255.2 424.95 251.63 426.64 248.68 427.31C245.73 427.98 240.07 426.98 238.12 426.6C237.66 428.14 237.19 429.67 236.81 431.18C236.58 432.18 236.28 433.18 236.1 434.24C235.92 435.3 235.7 436.3 235.5 437.32C235.2 439.32 234.87 441.32 234.62 443.26C234.43 444.6 234.28 445.88 234.13 447.17C234.66 445.69 235.77 442.81 235.89 442.58C237.654 439.476 240.185 436.877 243.24 435.03C243.419 434.676 243.634 434.341 243.88 434.03C244.322 433.412 244.891 432.894 245.548 432.512C246.206 432.13 246.937 431.892 247.693 431.813C248.449 431.735 249.214 431.818 249.935 432.057C250.657 432.296 251.32 432.686 251.88 433.2C255.17 436.34 253.88 444.43 252.12 448.08C252.02 448.3 250.63 450.51 249.72 451.89C250.38 451.16 251 450.44 251.72 449.7C253.06 448.22 254.43 446.78 255.91 445.23L258.16 443.04C258.89 442.29 259.76 441.59 260.56 440.86C262.47 439.19 264.48 437.6 266.56 436.04C265.27 434.87 260.74 430.63 259.56 427.84C258.38 425.05 257.56 421.2 259.13 418.4C259.478 417.732 259.963 417.144 260.553 416.675C261.143 416.206 261.825 415.866 262.555 415.678C263.285 415.489 264.046 415.456 264.789 415.58C265.533 415.705 266.241 415.984 266.87 416.4C270.59 419.01 270.56 427.2 269.36 431.08C269.29 431.32 268.12 434 267.45 435.46C268.69 434.54 269.93 433.61 271.22 432.71C274.95 430.12 278.8 427.61 282.64 425.1L286.14 422.77C285.67 422.35 280.14 417.43 278.81 414.31C277.59 411.54 276.81 407.66 278.38 404.86C278.727 404.19 279.211 403.602 279.801 403.132C280.391 402.662 281.074 402.321 281.804 402.133C282.534 401.944 283.296 401.911 284.039 402.037C284.783 402.162 285.492 402.442 286.12 402.86C289.84 405.46 289.81 413.66 288.61 417.53C288.52 417.82 286.83 421.69 286.35 422.65C288.92 420.93 291.46 419.2 293.89 417.39C297.196 414.965 300.339 412.326 303.3 409.49C303.08 409.3 297.3 404.19 295.92 400.99C294.7 398.22 293.92 394.34 295.48 391.55C295.827 390.88 296.311 390.292 296.901 389.822C297.491 389.352 298.174 389.011 298.904 388.823C299.634 388.634 300.396 388.601 301.139 388.727C301.883 388.852 302.592 389.132 303.22 389.55C306.95 392.16 306.91 400.35 305.72 404.22C305.64 404.48 304.35 407.42 303.72 408.81C303.794 408.854 303.864 408.904 303.93 408.96C306.835 406.03 309.469 402.844 311.8 399.44C313.11 397.58 314.26 395.74 315.33 393.92C314.16 393.07 308.86 389.17 307.28 386.43C305.7 383.69 304.56 380.04 305.81 377.09C306.078 376.384 306.493 375.743 307.026 375.208C307.559 374.673 308.199 374.256 308.904 373.985C309.609 373.715 310.363 373.595 311.117 373.636C311.871 373.676 312.608 373.875 313.28 374.22C317.28 376.4 318.13 384.55 317.37 388.53C317.37 388.75 316.66 390.91 316.16 392.47C316.63 391.64 317.16 390.79 317.57 389.99C319.22 386.99 320.57 384.12 321.7 381.57C322.34 380.12 322.9 378.8 323.4 377.57C322.68 376.15 319.87 370.36 319.73 367.26C319.59 364.16 320.26 360.34 322.73 358.26C323.294 357.758 323.957 357.38 324.677 357.151C325.396 356.923 326.156 356.849 326.906 356.934C327.656 357.019 328.38 357.261 329.03 357.644C329.681 358.028 330.243 358.544 330.68 359.16C333.21 362.93 330.23 370.56 327.68 373.74C327.47 374.02 323.58 377.93 323.54 377.86L323.49 377.77C323.03 378.98 322.49 380.27 321.94 381.67C320.84 384.24 319.57 387.14 317.94 390.2C316.267 393.518 314.397 396.734 312.34 399.83C310.062 403.315 307.475 406.588 304.61 409.61C304.579 409.646 304.546 409.679 304.51 409.71C305.67 409.07 309 407.4 309.27 407.3C313.07 405.89 321.27 405.4 324.06 408.97C324.51 409.576 324.828 410.27 324.992 411.007C325.156 411.744 325.163 412.508 325.012 413.247C324.861 413.987 324.556 414.687 324.116 415.301C323.676 415.915 323.112 416.429 322.46 416.81C319.76 418.53 315.85 417.96 313.01 416.9C309.81 415.7 304.57 410.47 304.15 410.05C301.165 413.054 297.981 415.854 294.62 418.43C292.62 419.95 290.62 421.43 288.62 422.86C289.62 422.34 290.57 421.86 290.71 421.86C294.51 420.45 302.71 419.96 305.5 423.53C305.95 424.136 306.268 424.83 306.432 425.567C306.596 426.304 306.603 427.068 306.452 427.807C306.301 428.547 305.996 429.247 305.556 429.861C305.116 430.475 304.552 430.989 303.9 431.37C301.2 433.09 297.29 432.53 294.45 431.47C291.61 430.41 287.01 426.01 285.82 424.84C285.04 425.38 284.26 425.94 283.47 426.48C279.69 429.08 275.9 431.66 272.26 434.31C270.98 435.24 269.76 436.21 268.52 437.17C269.44 436.7 270.21 436.32 270.33 436.28C274.13 434.87 282.33 434.38 285.12 437.95C285.571 438.555 285.889 439.249 286.054 439.986C286.219 440.722 286.226 441.485 286.076 442.225C285.926 442.965 285.622 443.665 285.183 444.279C284.744 444.893 284.181 445.408 283.53 445.79C280.82 447.51 276.91 446.95 274.07 445.88C271.23 444.81 267.07 440.88 265.66 439.47C264.43 440.47 263.19 441.47 262.05 442.56C261.28 443.29 260.49 443.94 259.76 444.72L257.56 446.96C256.22 448.44 254.83 449.96 253.56 451.42C252.67 452.42 251.83 453.42 250.99 454.42C252.26 453.48 254.77 451.69 254.99 451.56C258.54 449.56 266.54 447.87 269.86 450.97C270.398 451.501 270.818 452.139 271.093 452.842C271.368 453.546 271.491 454.3 271.455 455.055C271.419 455.809 271.225 456.548 270.885 457.223C270.544 457.897 270.066 458.493 269.48 458.97C266.91 461 263 461 260 460.42C256.74 459.74 251 455.55 250.26 455.03C248.87 456.67 247.53 458.28 246.3 459.83Z" fill="#92E3A9"/>
<path d="M48.33 405.73C51.89 405.22 58.65 400.81 58.65 400.81C58.65 400.81 54.4 397.24 54.1 397.05C50.65 394.84 42.68 392.59 39.1 395.51C38.5263 396.013 38.0649 396.631 37.7458 397.324C37.4266 398.017 37.2567 398.77 37.2473 399.533C37.2379 400.296 37.3891 401.052 37.691 401.753C37.993 402.453 38.439 403.083 39 403.6C41.32 405.88 45.3 406.17 48.33 405.73Z" fill="#92E3A9"/>
<path d="M114.61 371.62C114.69 371.62 113.03 366.29 112.89 365.97C111.23 362.22 105.82 355.97 101.25 356.43C100.493 356.53 99.7665 356.789 99.1166 357.189C98.4667 357.589 97.9084 358.121 97.4781 358.751C97.0479 359.382 96.7553 360.096 96.6195 360.847C96.4837 361.598 96.5077 362.369 96.69 363.11C97.35 366.28 100.52 368.72 103.29 370.03C106.54 371.56 114.6 371.62 114.61 371.62Z" fill="#92E3A9"/>
<path d="M121.24 460.52C122.81 462.52 124.24 464.31 125.52 466H128.76C127.13 463.91 125.23 461.55 123.09 459C121.84 457.51 120.48 455.94 119.09 454.35C120.38 452.773 121.579 451.124 122.68 449.41C125.56 450.41 131.46 450.12 132.23 450.08C132.45 451.98 132.64 453.83 132.8 455.58C133.17 459.53 133.4 463.04 133.55 466H136.17C135.96 463 135.65 459.39 135.17 455.34C134.95 453.41 134.68 451.34 134.39 449.24C135.13 449.01 141.18 447.12 143.39 445.16C145.39 443.37 147.48 440.54 147.26 437.7C147.23 437.03 147.059 436.375 146.759 435.775C146.459 435.176 146.037 434.646 145.52 434.22C145.002 433.794 144.401 433.481 143.755 433.302C143.109 433.123 142.433 433.081 141.77 433.18C137.77 433.9 134.77 440.52 134.29 444.09C134.29 444.3 134.21 446.62 134.21 448.09C134.08 447.23 133.97 446.39 133.83 445.5C133.56 443.75 133.24 442.01 132.91 440.14C132.71 439.24 132.52 438.33 132.32 437.41C132.12 436.49 131.84 435.55 131.6 434.61C131.01 432.45 130.3 430.28 129.53 428.12C131.07 427.88 136.53 426.96 138.77 425.49C141.01 424.02 143.51 421.55 143.77 418.71C143.841 418.043 143.772 417.368 143.566 416.729C143.36 416.091 143.022 415.503 142.574 415.003C142.126 414.503 141.579 414.103 140.966 413.829C140.354 413.554 139.691 413.412 139.02 413.41C135.02 413.52 131.02 419.61 130.02 423.06C129.96 423.28 129.51 425.84 129.29 427.26C128.82 425.96 128.36 424.66 127.84 423.36C126.35 419.62 124.72 415.87 123.12 412.13C122.62 410.98 122.12 409.83 121.66 408.69C122.21 408.61 128.66 407.69 131.24 406.01C133.5 404.55 135.98 402.07 136.24 399.22C136.313 398.554 136.245 397.88 136.04 397.242C135.835 396.603 135.498 396.016 135.051 395.517C134.604 395.018 134.056 394.618 133.445 394.345C132.833 394.071 132.17 393.93 131.5 393.93C127.5 394.04 123.5 400.12 122.5 403.58C122.42 403.84 121.78 407.53 121.67 408.48C120.6 405.95 119.57 403.42 118.67 400.89C117.417 397.473 116.384 393.979 115.58 390.43C115.83 390.43 122.58 389.43 125.21 387.74C127.47 386.28 129.95 383.8 130.21 380.95C130.283 380.284 130.215 379.61 130.01 378.972C129.805 378.333 129.468 377.746 129.021 377.247C128.574 376.748 128.026 376.348 127.415 376.075C126.803 375.801 126.14 375.66 125.47 375.66C121.47 375.77 117.47 381.85 116.47 385.31C116.4 385.54 115.91 388.31 115.71 389.69H115.48C114.664 386.108 114.169 382.46 114 378.79C113.94 376.79 114 374.79 114.09 372.96C115.37 372.96 121.22 372.62 123.73 371.36C126.24 370.1 128.88 367.96 129.4 365.16C129.544 364.506 129.55 363.829 129.416 363.172C129.281 362.516 129.011 361.896 128.622 361.351C128.232 360.806 127.733 360.349 127.155 360.009C126.578 359.67 125.936 359.455 125.27 359.38C121.27 359.04 116.61 364.65 115.27 367.98C115.2 368.16 114.63 370.08 114.27 371.49C114.33 370.64 114.37 369.77 114.44 368.96C114.69 365.96 115.11 363.15 115.51 360.7C115.74 359.31 115.98 358.05 116.22 356.88C117.45 356.18 122.37 353.28 123.99 351.05C125.61 348.82 126.99 345.66 126.16 342.93C125.987 342.282 125.68 341.679 125.259 341.157C124.837 340.636 124.311 340.21 123.714 339.905C123.117 339.601 122.463 339.425 121.794 339.389C121.125 339.354 120.456 339.46 119.83 339.7C116.1 341.26 114.57 348.37 114.83 351.96C114.83 352.27 115.83 357.08 115.83 357.05L116 357C115.75 358.12 115.49 359.33 115.24 360.65C114.79 363.1 114.31 365.87 113.99 368.91C113.607 372.193 113.417 375.495 113.42 378.8C113.405 382.487 113.716 386.168 114.35 389.8V389.93C113.8 388.93 112.16 386.01 112.01 385.8C109.88 382.9 104.01 378.53 100.23 379.8C99.6003 380.029 99.0258 380.388 98.5438 380.854C98.0618 381.319 97.6831 381.881 97.4323 382.502C97.1815 383.124 97.0641 383.791 97.0878 384.461C97.1116 385.13 97.2758 385.788 97.57 386.39C98.73 389 101.9 390.49 104.57 391.1C107.57 391.78 113.98 390.47 114.49 390.36C115.245 394.053 116.247 397.691 117.49 401.25C118.19 403.33 118.96 405.4 119.76 407.46C119.25 406.58 118.76 405.78 118.76 405.68C116.63 402.77 110.81 398.4 106.98 399.68C106.35 399.909 105.776 400.268 105.294 400.734C104.812 401.199 104.433 401.761 104.182 402.382C103.931 403.004 103.814 403.671 103.838 404.341C103.862 405.01 104.026 405.668 104.32 406.27C105.48 408.87 108.65 410.37 111.32 410.97C113.99 411.57 119.5 410.58 120.96 410.29C121.27 411.08 121.58 411.88 121.9 412.66C123.43 416.45 124.97 420.21 126.36 423.96C126.86 425.27 127.29 426.59 127.74 427.91C127.29 427.12 126.9 426.46 126.83 426.36C124.7 423.45 118.83 419.08 115.05 420.36C114.42 420.589 113.846 420.948 113.364 421.414C112.882 421.879 112.503 422.441 112.252 423.062C112.001 423.684 111.884 424.351 111.908 425.021C111.932 425.69 112.096 426.348 112.39 426.95C113.55 429.55 116.73 431.05 119.39 431.66C122.05 432.27 127.03 431.36 128.77 431.03C129.18 432.39 129.6 433.75 129.93 435.09C130.14 436 130.41 436.87 130.57 437.81C130.73 438.75 130.92 439.64 131.1 440.55C131.37 442.3 131.66 444.1 131.88 445.82C132.05 447.01 132.18 448.15 132.32 449.3C131.84 447.98 130.86 445.42 130.75 445.22C129.189 442.457 126.939 440.146 124.22 438.51C124.064 438.192 123.877 437.89 123.66 437.61C123.265 437.068 122.761 436.615 122.18 436.281C121.599 435.947 120.954 435.739 120.288 435.67C119.621 435.601 118.947 435.673 118.31 435.882C117.673 436.09 117.087 436.43 116.59 436.88C113.67 439.67 114.8 446.88 116.37 450.1C116.47 450.29 117.7 452.25 118.51 453.48L116.76 451.48C115.57 450.17 114.35 448.89 113.03 447.48L111.03 445.54C110.38 444.87 109.61 444.25 108.89 443.6C107.2 442.12 105.41 440.71 103.58 439.32C104.73 438.32 108.75 434.51 109.84 432.04C110.93 429.57 111.62 426.13 110.23 423.64C109.921 423.045 109.491 422.521 108.968 422.103C108.444 421.684 107.839 421.38 107.19 421.211C106.542 421.041 105.865 421.009 105.203 421.118C104.542 421.226 103.91 421.472 103.35 421.84C100.04 424.16 100.07 431.44 101.13 434.84C101.2 435.06 102.24 437.44 102.84 438.74C101.73 437.92 100.63 437.09 99.48 436.29C96.17 433.99 92.75 431.77 89.34 429.53C88.34 428.85 87.27 428.15 86.23 427.46C86.64 427.09 91.53 422.72 92.74 419.95C93.82 417.48 94.52 414.04 93.13 411.55C92.8214 410.955 92.3914 410.431 91.8678 410.013C91.3442 409.594 90.7385 409.29 90.0901 409.121C89.4416 408.951 88.7647 408.919 88.1033 409.028C87.4418 409.136 86.8104 409.382 86.25 409.75C82.95 412.07 82.97 419.35 84.04 422.75C84.12 423.01 85.62 426.44 86.04 427.29C83.76 425.77 81.51 424.23 79.34 422.62C76.4074 420.471 73.6181 418.132 70.99 415.62C71.18 415.45 76.3 410.91 77.54 408.06C78.63 405.6 79.32 402.16 77.93 399.67C77.6226 399.074 77.1932 398.549 76.6697 398.129C76.1461 397.71 75.5402 397.406 74.8913 397.236C74.2424 397.066 73.565 397.035 72.9032 397.144C72.2414 397.253 71.61 397.501 71.05 397.87C67.75 400.19 67.77 407.47 68.84 410.87C68.91 411.1 70.05 413.71 70.62 414.94C70.559 414.987 70.4956 415.03 70.43 415.07C67.8491 412.468 65.5064 409.64 63.43 406.62C62.27 404.97 61.25 403.33 60.29 401.71C61.29 400.96 66.04 397.49 67.45 395.06C68.86 392.63 69.86 389.38 68.75 386.76C68.5119 386.133 68.1441 385.564 67.6708 385.09C67.1975 384.615 66.6293 384.246 66.0035 384.006C65.3776 383.766 64.7081 383.661 64.0389 383.698C63.3697 383.735 62.7158 383.913 62.12 384.22C58.58 386.15 57.8 393.39 58.48 396.93C58.48 397.12 59.11 399.04 59.56 400.43C59.14 399.69 58.69 398.94 58.3 398.22C56.84 395.55 55.66 393.01 54.64 390.75C54.06 389.46 53.57 388.28 53.12 387.17C53.76 385.91 56.26 380.77 56.39 378.01C56.52 375.25 55.91 371.87 53.72 370.01C53.2192 369.564 52.6301 369.229 51.9911 369.026C51.3521 368.823 50.6775 368.757 50.0113 368.833C49.3452 368.908 48.7024 369.124 48.1249 369.464C47.5475 369.805 47.0483 370.263 46.66 370.81C44.41 374.16 47.06 380.94 49.29 383.81C49.49 384.05 52.94 387.53 52.98 387.46V387.39C53.39 388.46 53.85 389.61 54.37 390.85C55.37 393.14 56.47 395.71 57.88 398.43C59.3792 401.378 61.0486 404.236 62.88 406.99C64.9014 410.083 67.1973 412.988 69.74 415.67L69.84 415.77C68.84 415.2 65.84 413.71 65.61 413.62C62.23 412.36 54.97 411.93 52.47 415.1C52.0647 415.639 51.7781 416.258 51.629 416.915C51.4799 417.573 51.4716 418.255 51.6048 418.916C51.738 419.577 52.0095 420.203 52.4017 420.751C52.7938 421.3 53.2976 421.76 53.88 422.1C56.29 423.63 59.76 423.1 62.28 422.18C65.13 421.12 69.78 416.47 70.15 416.09C72.8037 418.763 75.637 421.252 78.63 423.54C80.36 424.89 82.14 426.19 83.95 427.47C83.04 427.01 82.22 426.6 82.1 426.56C78.72 425.31 71.45 424.87 68.96 428.05C68.5532 428.588 68.2652 429.207 68.1152 429.865C67.9652 430.523 67.9566 431.205 68.0898 431.867C68.2231 432.529 68.4953 433.155 68.8883 433.703C69.2814 434.252 69.7864 434.711 70.37 435.05C72.78 436.58 76.25 436.05 78.77 435.13C81.29 434.21 85.38 430.29 86.44 429.25L88.53 430.71C91.89 433.02 95.25 435.31 98.53 437.66C99.67 438.49 100.76 439.35 101.86 440.2C101.05 439.79 100.36 439.45 100.25 439.41C96.87 438.16 89.61 437.72 87.11 440.9C86.7036 441.439 86.4162 442.058 86.267 442.717C86.1177 443.375 86.11 444.058 86.2442 444.719C86.3784 445.381 86.6516 446.007 87.0456 446.555C87.4397 447.103 87.9456 447.562 88.53 447.9C90.93 449.43 94.41 448.9 96.93 447.98C99.45 447.06 103.14 443.52 104.4 442.28C105.5 443.19 106.59 444.1 107.61 445.03C108.3 445.68 109 446.26 109.61 446.95L111.61 448.95C112.8 450.26 114.04 451.61 115.17 452.95C115.97 453.85 116.71 454.73 117.45 455.61C116.33 454.77 114.09 453.18 113.89 453.07C110.74 451.32 103.63 449.79 100.68 452.55C100.204 453.021 99.8317 453.588 99.5885 454.213C99.3453 454.837 99.2362 455.506 99.2682 456.176C99.3003 456.845 99.4728 457.5 99.7746 458.099C100.076 458.698 100.501 459.226 101.02 459.65C103.17 461.52 106.68 461.55 109.31 461C112.21 460.39 117.31 456.68 117.97 456.21C119 457.71 120.15 459.14 121.24 460.52Z" fill="#92E3A9"/>
<path d="M349.46 50.04H164.54C160.304 50.04 156.87 53.474 156.87 57.71V420.64C156.87 424.876 160.304 428.31 164.54 428.31H349.46C353.696 428.31 357.13 424.876 357.13 420.64V57.71C357.13 53.474 353.696 50.04 349.46 50.04Z" fill="#263238" stroke="#263238" stroke-linecap="round" stroke-linejoin="round"/>
<path d="M348.24 91.5701H165.78V386.77H348.24V91.5701Z" fill="white" stroke="#263238" stroke-linecap="round" stroke-linejoin="round"/>
<path d="M276.84 70.91H237.17C236.454 70.91 235.767 70.6255 235.261 70.1192C234.754 69.6128 234.47 68.9261 234.47 68.21C234.469 67.8546 234.538 67.5024 234.673 67.1737C234.808 66.8449 235.006 66.5461 235.257 66.2943C235.508 66.0426 235.806 65.8428 236.134 65.7065C236.463 65.5702 236.815 65.5 237.17 65.5H276.84C277.195 65.5 277.547 65.5702 277.876 65.7065C278.204 65.8428 278.502 66.0426 278.753 66.2943C279.004 66.5461 279.202 66.8449 279.337 67.1737C279.472 67.5024 279.541 67.8546 279.54 68.21C279.54 68.9261 279.256 69.6128 278.749 70.1192C278.243 70.6255 277.556 70.91 276.84 70.91Z" fill="white"/>
<path d="M267.82 403.44C267.82 401.3 267.185 399.208 265.996 397.429C264.808 395.65 263.118 394.263 261.141 393.444C259.164 392.625 256.988 392.411 254.889 392.828C252.79 393.246 250.862 394.276 249.349 395.789C247.836 397.302 246.805 399.23 246.388 401.329C245.97 403.428 246.185 405.604 247.004 407.581C247.823 409.558 249.209 411.248 250.989 412.437C252.768 413.626 254.86 414.26 257 414.26C258.421 414.261 259.829 413.982 261.142 413.439C262.456 412.896 263.649 412.099 264.654 411.094C265.659 410.089 266.456 408.896 266.999 407.582C267.542 406.269 267.821 404.861 267.82 403.44Z" fill="white" stroke="#263238" stroke-width="0.704333" stroke-linecap="round" stroke-linejoin="round"/>
<path d="M262.49 397.95H251.52V408.92H262.49V397.95Z" fill="#263238"/>
<path d="M361.78 274.83L360.6 283.83C360.6 283.83 355.72 317.26 359.1 334.54C362.48 351.82 368.86 369.47 369.24 373.6C369.62 377.73 367.36 393.88 369.99 407.03C372.62 420.18 377.5 446.09 377.5 446.09L373.37 455.86C373.37 455.86 364.73 461.49 363.61 463.37C363.445 463.58 363.333 463.826 363.282 464.087C363.23 464.349 363.242 464.619 363.315 464.876C363.388 465.132 363.521 465.368 363.702 465.563C363.884 465.759 364.109 465.908 364.36 466H391.36C392.187 463.975 392.573 461.796 392.49 459.61V433.32C392.49 430.69 393.99 386 395.49 378.11C396.99 370.22 398.49 310.5 398.49 310.5H400C400 310.5 407.14 369.84 409 376.23C410.86 382.62 418.77 410.03 421 415.67C423.23 421.31 425.89 440.83 427.39 445.72C428.826 450.143 429.956 454.661 430.77 459.24C431.155 461.554 431.785 463.82 432.65 466H453C453 466 453.38 462.62 451.87 460.37C450.36 458.12 440.61 448.37 439.1 441.21C437.59 434.05 441.36 401 441 389.38C440.64 377.76 437.24 376.23 437.24 366.09C437.24 355.95 441 325.15 441 310.5C441 295.85 439 282.35 435.33 274.64L430.11 269.56H365.48L361.78 274.83Z" fill="#D9D9D9" stroke="#263238" stroke-linecap="round" stroke-linejoin="round"/>
<path d="M442.15 447.92V447.97C442.15 447.97 436.89 444.59 435.01 447.22C433.13 449.85 433.13 451.35 433.13 451.35H429.13C429.871 453.943 430.456 456.577 430.88 459.24C431.265 461.554 431.895 463.82 432.76 466H453C453 466 453.38 462.62 451.87 460.37C450.81 458.77 445.64 453.43 442.15 447.92Z" fill="#92E3A9" stroke="#263238" stroke-linecap="round" stroke-linejoin="round"/>
<path d="M432.72 466H453C453.074 465.13 453.05 464.255 452.93 463.39H431.81C432.27 464.89 432.72 466 432.72 466Z" fill="white" stroke="#263238" stroke-linecap="round" stroke-linejoin="round"/>
<path d="M392.53 459.61V453.23H385.39C385.39 453.23 385.77 450.23 382.39 447.97C379.01 445.71 375.62 450.97 375.62 450.97H375.44L373.37 455.85C373.37 455.85 364.73 461.48 363.61 463.36C363.445 463.57 363.333 463.816 363.282 464.078C363.23 464.339 363.242 464.609 363.315 464.866C363.388 465.123 363.521 465.358 363.702 465.553C363.884 465.749 364.109 465.898 364.36 465.99H391.36C392.2 463.971 392.599 461.796 392.53 459.61Z" fill="#92E3A9" stroke="#263238" stroke-linecap="round" stroke-linejoin="round"/>
<path d="M363.59 463.39C363.43 463.601 363.322 463.846 363.274 464.107C363.226 464.367 363.241 464.635 363.316 464.889C363.39 465.143 363.524 465.376 363.705 465.569C363.887 465.762 364.111 465.91 364.36 466H391.36C391.726 465.165 391.988 464.289 392.14 463.39H363.59Z" fill="white" stroke="#263238" stroke-linecap="round" stroke-linejoin="round"/>
<path d="M439 427.36C439.63 414.57 441.23 397.18 441 389.36C440.63 377.71 437.24 376.21 437.24 366.07C437.24 355.93 441 325.15 441 310.5C441 295.85 439 282.35 435.33 274.64L430.11 269.56H365.48L361.78 274.83L360.6 283.83C360.6 283.83 355.72 317.26 359.1 334.54C362.48 351.82 368.86 369.47 369.24 373.6C369.62 377.73 367.36 393.88 369.99 407.03C371.15 412.8 372.73 421.03 374.15 428.45C380.202 429.822 386.41 430.384 392.61 430.12C392.93 419.25 394.23 384.93 395.53 378.12C397.03 370.23 398.53 310.51 398.53 310.51H400C400 310.51 407.14 369.85 409 376.24C410.86 382.63 418.77 410.04 421 415.68C422 418.08 423 423 424 428.24C429 429.123 434.138 428.822 439 427.36Z" fill="white" stroke="#263238" stroke-linecap="round" stroke-linejoin="round"/>
<path d="M404.55 307.12L424.83 290.97" stroke="#263238" stroke-linecap="round" stroke-linejoin="round"/>
<path d="M374.87 292.47L385.39 301.11" stroke="#263238" stroke-linecap="round" stroke-linejoin="round"/>
<path d="M419 110.46C419 110.46 410.37 105.36 410.57 108.11C410.77 110.86 414.49 112.81 414.49 112.81C414.49 112.81 402.13 111.05 400.17 111.81C398.21 112.57 401.55 113.58 401.55 113.58C401.55 113.58 386.25 125.34 380.96 133.38C375.67 141.42 370.96 153.19 376.45 162.21C381.94 171.23 389.98 178.29 403.51 182.21C417.04 186.13 430.37 182.01 439.39 178.29C448.41 174.57 457.39 163.97 455.86 150.64C454.33 137.31 442.49 123.4 433.66 114C424.83 104.6 419.35 106 419.35 107.33C419.326 108.382 419.209 109.429 419 110.46Z" fill="#263238" stroke="#263238" stroke-linecap="round" stroke-linejoin="round"/>
<path d="M397.84 166.16L395.84 181.25C395.84 181.25 381.52 185.95 376.23 188.11C370.94 190.27 368.58 193.01 367.6 195.36C366.62 197.71 352.6 230.36 352 233.46C351.4 236.56 352.39 237.97 356.7 239.93C361.01 241.89 373 234.64 373 234.64L374.57 240.13C374.57 240.13 366.72 253.46 365.35 257.77C363.98 262.08 361.82 274.83 361.82 274.83C361.82 274.83 376.72 282.28 400.25 281.7C423.78 281.12 435.35 274.64 435.35 274.64C435.35 274.64 432.8 261.89 430.06 254.44C427.32 246.99 424.96 244.05 424.96 241.11C424.96 238.17 433.59 222.87 433.59 222.87L451.81 231.46C451.81 231.46 447.51 216.6 446.33 206.6C445.15 196.6 443.12 194.97 439.19 191.44C435.26 187.91 418.02 182.82 417.43 182.44C416.84 182.06 418.21 165.58 418.21 165.58C418.21 165.58 403.33 169.5 397.84 166.16Z" fill="#D9D9D9" stroke="#263238" stroke-linecap="round" stroke-linejoin="round"/>
<path d="M409.22 176.49C411.96 175.49 415.22 172.9 417.78 170.58C417.99 167.77 418.17 165.58 418.17 165.58C418.17 165.58 403.33 169.52 397.84 166.18L396.49 176.18C399.53 178.9 404.49 178.27 409.22 176.49Z" fill="#263238" stroke="#263238" stroke-linecap="round" stroke-linejoin="round"/>
<path d="M430 254.44C427.25 246.99 424.9 244.05 424.9 241.11C424.9 238.17 433.53 222.87 433.53 222.87L451.75 231.46C451.75 231.46 447.45 216.6 446.27 206.6C445.64 201.19 444.74 198.24 443.44 196.1C415.5 199.65 384.44 193.28 372.05 190.27C370.083 191.485 368.52 193.257 367.56 195.36C366.56 197.72 352.56 230.36 351.96 233.46C351.36 236.56 352.35 237.97 356.66 239.93C360.97 241.89 373 234.64 373 234.64L374.57 240.13C374.57 240.13 366.72 253.46 365.35 257.77C363.98 262.08 361.82 274.83 361.82 274.83C361.82 274.83 376.72 282.28 400.25 281.7C423.78 281.12 435.35 274.64 435.35 274.64C435.35 274.64 432.76 261.89 430 254.44Z" fill="#92E3A9" stroke="#263238" stroke-linecap="round" stroke-linejoin="round"/>
<path d="M375.48 229.24C375.48 229.24 371.58 221.07 372.64 216.81C373.7 212.55 374.42 211.48 374.42 211.48" stroke="#263238" stroke-linecap="round" stroke-linejoin="round"/>
<path d="M446.29 206.6C445.66 201.19 444.76 198.24 443.46 196.1C415.52 199.65 384.46 193.28 372.07 190.27C370.103 191.485 368.54 193.257 367.58 195.36C367.24 196.19 365.27 200.78 362.85 206.5C373.85 209.5 415.98 219.93 447.72 215.04C447.12 212.13 446.6 209.2 446.29 206.6Z" fill="#92E3A9" stroke="#263238" stroke-linecap="round" stroke-linejoin="round"/>
<path d="M401.67 129.7L426.67 145.81L425.98 152.32C425.98 152.32 430.44 147.87 431.13 152.67C431.82 157.47 430.13 159.87 427.01 161.24C423.89 162.61 422.21 162.24 422.21 162.24C422.21 162.24 414.67 170.46 409.21 172.52C403.75 174.58 397.91 175.12 395.21 170.66C392.51 166.2 388.67 158.12 389.7 153.32C390.73 148.52 400 129.7 400 129.7H401.67Z" fill="#D9D9D9" stroke="#263238" stroke-linecap="round" stroke-linejoin="round"/>
<path d="M404.13 144.93C404.125 146.142 403.709 147.316 402.95 148.26C401.78 149.44 399.03 151.01 399.03 152.18C399.03 153.35 401.58 155.71 403.93 155.52" stroke="#263238" stroke-linecap="round" stroke-linejoin="round"/>
<path d="M399.81 158.07C400.974 158.864 402.359 159.272 403.767 159.236C405.176 159.2 406.538 158.722 407.66 157.87" stroke="#263238" stroke-linecap="round" stroke-linejoin="round"/>
<path d="M409.23 147.87C409.23 147.87 413.54 146.3 415.89 149.63" stroke="#263238" stroke-linecap="round" stroke-linejoin="round"/>
<path d="M395.89 145.91C395.89 145.91 399.42 144.34 401.19 146.3" stroke="#263238" stroke-linecap="round" stroke-linejoin="round"/>
<path d="M398.05 139.24C398.695 138.449 399.567 137.875 400.549 137.594C401.53 137.313 402.574 137.34 403.54 137.67" stroke="#263238" stroke-linecap="round" stroke-linejoin="round"/>
<path d="M411.19 139.63C411.19 139.63 416.68 139.83 417.85 144.93" stroke="#263238" stroke-linecap="round" stroke-linejoin="round"/>
<path d="M361 227C361 227 354.92 229.35 353 233.08C351.08 236.81 351.43 245.43 359.07 247.59C366.71 249.75 423.19 238.37 423.19 238.37C424.574 240.483 426.08 242.513 427.7 244.45C429.08 245.82 432.61 248.57 432.8 249.74C432.99 250.91 433.39 258.37 434.96 258.74C436.53 259.11 435.96 255.21 435.96 255.21C435.96 255.21 438.51 251.49 438.51 249.72C438.51 247.95 438.9 242.27 438.51 240.9C438.12 239.53 428.9 231.49 426.94 230.9C424.98 230.31 374.78 228.9 370.08 228.15C365.38 227.4 362.56 226.79 361 227Z" fill="#D9D9D9" stroke="#263238" stroke-linecap="round" stroke-linejoin="round"/>
<path d="M410.965 173.036L416.969 177.027C418.032 177.734 419.466 177.445 420.172 176.382L432.278 158.168C432.984 157.106 432.695 155.672 431.632 154.966L425.628 150.975C424.565 150.269 423.132 150.558 422.425 151.62L410.319 169.834C409.613 170.896 409.902 172.33 410.965 173.036Z" fill="#92E3A9" stroke="#263238" stroke-miterlimit="10"/>
<path d="M429 173.35C429 173.35 430.24 170.17 431.47 167.88C432.7 165.59 432.71 164.52 431.83 164.52C430.89 164.69 430.02 165.132 429.328 165.791C428.637 166.451 428.154 167.299 427.94 168.23C427.513 170.142 427.394 172.11 427.59 174.06L429 173.35Z" fill="#D9D9D9" stroke="#263238" stroke-miterlimit="10"/>
<path d="M418.39 185.54C418.39 185.54 428.46 175.47 428.81 174.59C429.16 173.71 428.81 162.24 428.66 159C428.663 158.759 428.578 158.525 428.422 158.341C428.266 158.157 428.048 158.036 427.81 158C427.668 157.969 427.521 157.97 427.379 158.002C427.238 158.034 427.105 158.096 426.989 158.185C426.874 158.273 426.78 158.386 426.713 158.514C426.645 158.643 426.607 158.785 426.6 158.93L425.81 168.22L423.5 156.52C423.462 156.283 423.34 156.068 423.156 155.914C422.973 155.76 422.74 155.677 422.5 155.68C422.361 155.679 422.223 155.708 422.095 155.764C421.968 155.82 421.853 155.901 421.759 156.004C421.665 156.107 421.593 156.228 421.549 156.36C421.504 156.492 421.487 156.631 421.5 156.77L422.15 169.77L419.25 158.64C419.214 158.502 419.151 158.372 419.064 158.258C418.978 158.144 418.87 158.049 418.746 157.977C418.622 157.906 418.485 157.859 418.344 157.841C418.202 157.822 418.058 157.832 417.92 157.87C417.672 157.938 417.456 158.092 417.311 158.304C417.166 158.517 417.102 158.774 417.13 159.03L418.44 171.03L415.97 173.15V168.91L412.97 163.91C412.861 163.73 412.689 163.597 412.487 163.538C412.285 163.479 412.069 163.497 411.88 163.59C411.686 163.685 411.536 163.852 411.464 164.056C411.391 164.259 411.4 164.483 411.49 164.68L413.49 169.07C413.49 169.07 409.6 184.97 409.42 185.5C409.24 186.03 410.13 188.86 410.66 189.92C411.19 190.98 434.86 241.14 436.27 243.08C437.68 245.02 447.22 248.03 451.46 243.43C455.7 238.83 454.29 234.25 451.99 228.95C449.69 223.65 418.39 185.54 418.39 185.54Z" fill="#D9D9D9" stroke="#263238" stroke-miterlimit="10"/>
<path d="M254 191C277.196 191 296 172.196 296 149C296 125.804 277.196 107 254 107C230.804 107 212 125.804 212 149C212 172.196 230.804 191 254 191Z" fill="#92E3A9"/>
<path d="M279.64 129.99H229.86L254.4 153.65L279.64 129.99Z" fill="#263238"/>
<path d="M264.37 148.41L281.7 163.73V132.17L264.37 148.41Z" fill="#263238"/>
<path d="M244.62 148.38L227.06 131.46V163.01L244.62 148.38Z" fill="#263238"/>
<path d="M262.17 150.47L254.37 157.78L246.79 150.48L228.52 165.7H279.4L262.17 150.47Z" fill="#263238"/>
<path d="M254 283C277.196 283 296 264.196 296 241C296 217.804 277.196 199 254 199C230.804 199 212 217.804 212 241C212 264.196 230.804 283 254 283Z" fill="#92E3A9"/>
<path d="M248.39 227.75C248.509 227.982 248.675 228.186 248.878 228.349C249.081 228.513 249.315 228.632 249.567 228.699C249.819 228.766 250.082 228.779 250.339 228.738C250.596 228.697 250.842 228.602 251.06 228.46C252.43 227.71 253.8 226.96 255.06 226.09C255.511 225.661 255.883 225.157 256.16 224.6C255.91 224.01 255.78 223.6 255.58 223.24C255.04 222.24 254.46 221.24 253.89 220.24L248.1 210.24C247.985 209.949 247.804 209.688 247.57 209.48C247.337 209.271 247.057 209.121 246.755 209.04C246.452 208.959 246.135 208.95 245.828 209.015C245.522 209.079 245.235 209.214 244.99 209.41C243.75 210.11 242.52 210.81 241.31 211.55C241.076 211.662 240.868 211.823 240.701 212.021C240.533 212.219 240.41 212.451 240.339 212.701C240.268 212.95 240.251 213.212 240.289 213.469C240.327 213.726 240.42 213.972 240.56 214.19C243.16 218.73 245.77 223.25 248.39 227.75Z" fill="#263238"/>
<path d="M277.22 260.66C274.687 256.26 272.147 251.867 269.6 247.48C269.492 247.214 269.324 246.976 269.109 246.784C268.895 246.592 268.64 246.452 268.363 246.374C268.086 246.296 267.795 246.282 267.512 246.333C267.229 246.384 266.962 246.5 266.73 246.67C265.457 247.383 264.197 248.113 262.95 248.86C262.715 248.971 262.505 249.129 262.333 249.325C262.162 249.52 262.034 249.75 261.956 249.998C261.878 250.246 261.852 250.508 261.88 250.766C261.909 251.025 261.99 251.275 262.12 251.5L270.4 265.63C270.699 265.889 271.073 266.045 271.467 266.075C271.861 266.106 272.255 266.009 272.59 265.8C273.93 265.07 275.28 264.34 276.59 263.49C277.054 263.069 277.452 262.58 277.77 262.04C277.622 261.567 277.439 261.105 277.22 260.66Z" fill="#263238"/>
<path d="M260.08 252.41C259.264 252.702 258.395 252.814 257.532 252.738C256.669 252.662 255.832 252.4 255.08 251.97C254.229 251.535 253.431 251.005 252.7 250.39C249.002 247.134 246.418 242.801 245.31 238C244.58 235 244.38 232 246.68 229.6L238.16 215C237.49 215.43 236.84 215.84 236.23 216.27C234.997 217.036 233.997 218.125 233.339 219.419C232.682 220.713 232.391 222.162 232.5 223.61C232.653 226.581 233.085 229.53 233.79 232.42C236.613 242.43 241.639 251.683 248.5 259.5C251.047 262.611 254.088 265.283 257.5 267.41C259.181 268.458 261.141 268.971 263.119 268.88C265.098 268.789 267.003 268.098 268.58 266.9L260.08 252.41Z" fill="#263238"/>
<path d="M254 375C277.196 375 296 356.196 296 333C296 309.804 277.196 291 254 291C230.804 291 212 309.804 212 333C212 356.196 230.804 375 254 375Z" fill="#92E3A9"/>
<path d="M247.81 340.87H238.48V345.6C238.479 347.073 239.037 348.492 240.041 349.571C241.045 350.649 242.42 351.306 243.89 351.41L247.81 340.87Z" fill="#263238"/>
<path d="M273.82 324.67H269.82V332.9C269.82 335.022 268.977 337.057 267.477 338.557C265.977 340.057 263.942 340.9 261.82 340.9H261.68L247.4 351.43H262.9L259.07 361.73L273 351.43H273.84C275.387 351.43 276.871 350.816 277.966 349.723C279.061 348.63 279.677 347.147 279.68 345.6V330.5C279.679 329.732 279.526 328.972 279.231 328.264C278.935 327.555 278.503 326.911 277.959 326.37C277.415 325.828 276.769 325.399 276.059 325.108C275.349 324.816 274.588 324.667 273.82 324.67Z" fill="#263238"/>
<path d="M261.81 312H232.3C230.754 312 229.271 312.614 228.178 313.708C227.084 314.801 226.47 316.284 226.47 317.83V332.93C226.47 334.477 227.084 335.961 228.177 337.056C229.27 338.151 230.753 338.767 232.3 338.77H250.89L247.06 349L261 338.74H261.84C263.388 338.737 264.872 338.121 265.967 337.027C267.061 335.932 267.677 334.448 267.68 332.9V317.8C267.669 316.253 267.045 314.773 265.945 313.686C264.844 312.598 263.357 311.992 261.81 312Z" fill="#263238"/>
<path d="M238.97 327.06C240.124 327.06 241.06 326.124 241.06 324.97C241.06 323.816 240.124 322.88 238.97 322.88C237.816 322.88 236.88 323.816 236.88 324.97C236.88 326.124 237.816 327.06 238.97 327.06Z" fill="#92E3A9"/>
<path d="M249.57 325C249.57 325.413 249.447 325.817 249.218 326.161C248.988 326.505 248.662 326.773 248.28 326.931C247.898 327.089 247.478 327.13 247.072 327.05C246.667 326.969 246.294 326.77 246.002 326.478C245.71 326.185 245.511 325.813 245.43 325.408C245.35 325.002 245.391 324.582 245.549 324.2C245.707 323.818 245.975 323.492 246.319 323.262C246.663 323.032 247.067 322.91 247.48 322.91C248.034 322.913 248.564 323.134 248.955 323.525C249.346 323.916 249.567 324.446 249.57 325Z" fill="#92E3A9"/>
<path d="M258.07 325C258.07 325.414 257.947 325.818 257.717 326.162C257.487 326.506 257.16 326.774 256.778 326.932C256.395 327.09 255.974 327.13 255.569 327.049C255.163 326.968 254.791 326.767 254.499 326.474C254.207 326.181 254.008 325.808 253.929 325.402C253.849 324.995 253.892 324.575 254.052 324.193C254.212 323.811 254.481 323.486 254.826 323.257C255.171 323.029 255.576 322.908 255.99 322.91C256.543 322.913 257.072 323.134 257.461 323.526C257.851 323.917 258.07 324.447 258.07 325Z" fill="#92E3A9"/>
<path d="M153.17 210.61L153.93 209.61L166.32 192.73C166.32 192.73 168 182.66 168.84 180.14C169.68 177.62 171.36 172.31 171.92 170.35C172.48 168.39 173.04 166.15 174.16 166.99C175.28 167.83 175.28 171.19 174.72 172.87C174.227 174.404 174.13 176.039 174.44 177.62C174.72 178.46 189.55 165.87 190.94 166.99C192.33 168.11 190.39 173.43 187.59 177.06C184.79 180.69 173.32 193.85 173.32 193.85C173.32 193.85 160.17 229.1 156.25 234.7C152.33 240.3 151.5 237.78 147.58 234.7C143.66 231.62 138.58 224.63 138.58 224.63L153.17 210.61Z" fill="white" stroke="#263238" stroke-linecap="round" stroke-linejoin="round"/>
<path d="M173.6 187.11C173.6 187.11 175 182.11 176.4 180.95C177.8 179.79 183.11 176.48 183.11 176.48L186.75 165.28C186.75 165.28 187.87 164.44 187.59 166.96C187.31 169.48 186.75 175.08 185.91 177.59C185.07 180.1 181.43 184.59 181.43 184.59" fill="white"/>
<path d="M173.6 187.11C173.6 187.11 175 182.11 176.4 180.95C177.8 179.79 183.11 176.48 183.11 176.48L186.75 165.28C186.75 165.28 187.87 164.44 187.59 166.96C187.31 169.48 186.75 175.08 185.91 177.59C185.07 180.1 181.43 184.59 181.43 184.59" stroke="#263238" stroke-linecap="round" stroke-linejoin="round"/>
<path d="M133.03 167.8L154.57 210.05L138.07 226.84L133.31 210.89L133.03 167.8Z" fill="#92E3A9" stroke="#263238" stroke-linecap="round" stroke-linejoin="round"/>
<path d="M136.09 220.22L138.07 226.84L154.57 210.05L151.6 204.23L136.09 220.22Z" fill="#263238" stroke="#263238" stroke-miterlimit="10"/>
<path d="M81.38 446L79.38 453.93C79.38 453.93 67.65 460.43 66.75 461.33C65.85 462.23 66.2 466.02 66.2 466.02H99.78C99.9506 463.114 99.7082 460.198 99.06 457.36C98.5522 453.843 98.2418 450.301 98.13 446.75L81.38 446Z" fill="#263238" stroke="#263238" stroke-linecap="round" stroke-linejoin="round"/>
<path d="M66.21 466H99.78C99.819 465.277 99.819 464.553 99.78 463.83H66.15C66.12 465 66.21 466 66.21 466Z" fill="white" stroke="#263238" stroke-linecap="round" stroke-linejoin="round"/>
<path d="M67.48 461C69.7801 459.036 72.6009 457.782 75.6 457.39C81.01 456.48 85.89 458.47 86.97 459.55C88.05 460.63 88.77 463.7 88.77 463.7L66.15 463.88C65.9816 463.613 65.8827 463.309 65.8621 462.994C65.8415 462.68 65.9 462.365 66.0322 462.078C66.1644 461.792 66.3661 461.544 66.619 461.355C66.8719 461.167 67.1679 461.045 67.48 461Z" fill="white" stroke="#263238" stroke-linecap="round" stroke-linejoin="round"/>
<path d="M96.35 452.37C96.35 454.32 95.67 455.89 94.82 455.89C93.97 455.89 93.28 454.32 93.28 452.37C93.28 450.42 93.97 448.85 94.82 448.85C95.67 448.85 96.35 450.43 96.35 452.37Z" fill="white" stroke="#263238" stroke-linecap="round" stroke-linejoin="round"/>
<path d="M165.18 446L167.18 453.93C167.18 453.93 178.91 460.43 179.81 461.33C180.71 462.23 180.35 466.02 180.35 466.02H146.78C146.603 463.114 146.846 460.197 147.5 457.36C148.001 453.843 148.308 450.301 148.42 446.75L165.18 446Z" fill="#263238" stroke="#263238" stroke-linecap="round" stroke-linejoin="round"/>
<path d="M180.34 466H146.78C146.723 465.278 146.703 464.554 146.72 463.83H180.41C180.426 464.554 180.402 465.279 180.34 466Z" fill="white" stroke="#263238" stroke-linecap="round" stroke-linejoin="round"/>
<path d="M179.08 461C176.778 459.039 173.958 457.785 170.96 457.39C165.55 456.48 160.67 458.47 159.59 459.55C158.51 460.63 157.78 463.7 157.78 463.7L180.41 463.88C180.578 463.613 180.677 463.309 180.698 462.994C180.718 462.68 180.66 462.365 180.528 462.078C180.396 461.792 180.194 461.544 179.941 461.355C179.688 461.167 179.392 461.045 179.08 461Z" fill="white" stroke="#263238" stroke-linecap="round" stroke-linejoin="round"/>
<path d="M150.2 452.37C150.2 454.32 150.89 455.89 151.74 455.89C152.59 455.89 153.27 454.32 153.27 452.37C153.27 450.42 152.59 448.85 151.74 448.85C150.89 448.85 150.2 450.43 150.2 452.37Z" fill="white" stroke="#263238" stroke-linecap="round" stroke-linejoin="round"/>
<path d="M81 277.66L79.89 295.16L81.38 445.98L98.13 446.73L114.89 307.45L117.13 306.7L148.42 446.73L165.18 445.98L157.72 352.14L146.46 271.6L81 277.66Z" fill="white" stroke="#263238" stroke-linecap="round" stroke-linejoin="round"/>
<path d="M116.36 282.41V295.18L119.84 289.38L120.43 280.67" stroke="#808080" stroke-linecap="round" stroke-linejoin="round"/>
<path d="M92.46 165.84C92.46 165.84 54.69 182.35 54.13 184C53.57 185.65 43.5 227.37 45.13 231.28C46.1313 233.473 47.9241 235.207 50.1493 236.134C52.3745 237.061 54.8679 237.113 57.13 236.28C62.44 234.28 67.48 213.9 67.48 213.9C67.48 213.9 79.23 249.71 79.23 253.35C79.23 256.99 80.35 279.35 80.35 279.35C80.35 279.35 101.89 282.42 119.8 278.23C137.71 274.04 146.38 271.51 146.38 271.51L137.99 220.31C137.99 220.31 133.51 169.67 132.99 167.71C132.47 165.75 100.53 165.19 97.99 165.47C95.45 165.75 92.46 165.84 92.46 165.84Z" fill="#92E3A9" stroke="#263238" stroke-linecap="round" stroke-linejoin="round"/>
<path d="M63.81 226C62.5266 221.872 60.2341 218.129 57.14 215.11C54.02 212.34 49.87 213.91 47.03 215.63C45.53 223.4 44.56 229.93 45.18 231.36C46.1813 233.553 47.9741 235.287 50.1993 236.214C52.4245 237.141 54.9179 237.193 57.18 236.36C59.61 235.46 62 230.8 63.81 226Z" fill="#263238" stroke="#263238" stroke-miterlimit="10"/>
<path d="M74.87 237L138.58 223.61L138.07 220.45C138.07 220.45 137.97 219.45 137.82 217.64L73.08 231.24C73.68 233.1 74.28 235 74.87 237Z" fill="#263238"/>
<path d="M146.46 271.6L140.17 233.26L77.62 246.26C78.3779 248.61 78.9431 251.018 79.31 253.46C79.31 257.09 80.43 279.46 80.43 279.46C80.43 279.46 101.97 282.53 119.88 278.34C137.79 274.15 146.46 271.6 146.46 271.6Z" fill="#263238" stroke="#263238" stroke-miterlimit="10"/>
<path d="M98.06 165.56C95.54 165.84 92.46 165.84 92.46 165.84C92.46 165.84 85.38 168.94 77.3 172.59L110 206.35C110 206.35 117 172.68 116.38 169.78C116.086 168.422 115.698 167.085 115.22 165.78C107.19 165.49 99.26 165.43 98.06 165.56Z" fill="#263238" stroke="#263238" stroke-miterlimit="10"/>
<path d="M108.69 156.05C108.69 156.05 110.37 170.6 111.21 173.4C112.05 176.2 106.45 195.78 106.45 195.78C106.45 195.78 90.22 179.27 88.26 174.52C86.3 169.77 81.83 153.25 81.83 153.25C81.83 153.25 96.1 160.53 108.69 156.05Z" fill="white" stroke="#263238" stroke-linecap="round" stroke-linejoin="round"/>
<path d="M81.83 153.25C81.83 153.25 82.83 157.02 84.13 161.47C84.81 161.85 85.63 162.28 86.63 162.78C91.8421 165.54 97.7784 166.626 103.63 165.89C104.852 165.69 106.01 165.205 107.01 164.476C108.01 163.746 108.826 162.792 109.39 161.69C108.99 158.56 108.7 156.05 108.7 156.05C96.1 160.53 81.83 153.25 81.83 153.25Z" fill="#263238" stroke="#263238" stroke-linecap="round" stroke-linejoin="round"/>
<path d="M101.5 119.33C101.5 119.33 105.74 127.82 108.58 131.5C111.42 135.18 115.94 143.4 113.96 148.21C111.98 153.02 110.68 161.21 104.33 162.09C98.4775 162.818 92.5427 161.728 87.33 158.97C82.23 156.42 81.67 155.57 81.67 155.57C81.67 155.57 77.42 155.57 74.87 153.57C72.32 151.57 67.23 145.36 68.64 139.98C70.05 134.6 73.46 134.03 73.46 134.03C73.46 134.03 66.38 131.2 70.91 124.12C75.44 117.04 85.06 114.5 89.6 114.5C94.14 114.5 101.5 119.33 101.5 119.33Z" fill="white" stroke="#263238" stroke-linecap="round" stroke-linejoin="round"/>
<path d="M100.08 128.67C100.731 129.699 101.602 130.57 102.63 131.22C104.63 132.64 107.44 131.79 106.63 134.34C105.82 136.89 103.8 137.73 102.1 137.45" stroke="#263238" stroke-linecap="round" stroke-linejoin="round"/>
<path d="M106.88 140.57C106.88 140.57 101.5 143.68 97.82 143.4C95.9014 143.357 94.0349 142.767 92.44 141.7" stroke="#263238" stroke-linecap="round" stroke-linejoin="round"/>
<path d="M95 143.4C95 143.4 97 150.48 99.81 148.21C101.59 146.652 102.788 144.537 103.21 142.21C100.598 143.221 97.7914 143.627 95 143.4Z" fill="#263238" stroke="#263238" stroke-linecap="round" stroke-linejoin="round"/>
<path d="M94.71 131.13C95.33 132.13 95.35 133.22 94.71 133.6C94.07 133.98 93.11 133.5 92.48 132.52C91.85 131.54 91.84 130.43 92.48 130.04C93.12 129.65 94.08 130.14 94.71 131.13Z" fill="#263238"/>
<path d="M103.75 126.85C104.37 127.85 104.39 128.95 103.75 129.33C103.11 129.71 102.15 129.23 101.52 128.24C100.89 127.25 100.88 126.15 101.52 125.77C102.16 125.39 103.12 125.87 103.75 126.85Z" fill="#263238"/>
<path d="M88.77 130.28C88.77 130.28 89.59 126.5 92.55 126" stroke="#263238" stroke-linecap="round" stroke-linejoin="round"/>
<path d="M98.47 124.36C98.47 124.36 100.12 121.24 102.75 122.55" stroke="#263238" stroke-linecap="round" stroke-linejoin="round"/>
<path d="M74.31 128.11C74.31 128.11 92.72 128.11 94.14 124.99C95.56 121.87 91.3 119.61 91.3 119.61C91.3 119.61 107.16 120.18 108.86 115.36C110.56 110.54 103.2 108.57 100.93 108.57H97.53C97.53 108.57 96.68 101.49 88.47 103.19C80.26 104.89 64.4 115.65 62.47 121.88C60.54 128.11 55.96 130.09 59.36 137.45C62.76 144.81 72.1 150.76 72.1 150.76C72.1 150.76 70.68 145.38 73.52 145.1C76.36 144.82 81.16 146.79 82.01 146.79C82.86 146.79 85.41 144.53 84.01 143.11C82.61 141.69 81.18 140.85 80.9 140C80.62 139.15 82.31 136.32 81.18 133.77C80.05 131.22 74.31 128.11 74.31 128.11Z" fill="#263238" stroke="#263238" stroke-linecap="round" stroke-linejoin="round"/>
<path d="M74.5704 138.403L68.0077 142.765C66.9452 143.471 66.6564 144.905 67.3626 145.967L80.2932 165.422C80.9994 166.485 82.4332 166.773 83.4957 166.067L90.0584 161.705C91.1209 160.999 91.4097 159.565 90.7035 158.503L77.7729 139.048C77.0667 137.986 75.6329 137.697 74.5704 138.403Z" fill="#92E3A9" stroke="#263238" stroke-miterlimit="10"/>
<path d="M70.92 162.11C70.92 162.11 69.61 158.76 68.31 156.33C67.01 153.9 67 152.79 67.93 152.79C68.9154 152.975 69.8253 153.443 70.5483 154.138C71.2713 154.832 71.7758 155.723 72 156.7C72.4457 158.721 72.5705 160.8 72.37 162.86L70.92 162.11Z" fill="white" stroke="#263238" stroke-miterlimit="10"/>
<path d="M82.11 175C82.11 175 71.48 164.37 71.11 163.44C70.74 162.51 71.16 150.44 71.27 146.97C71.2898 146.728 71.3886 146.499 71.5512 146.318C71.7138 146.138 71.9312 146.015 72.17 145.97C72.3207 145.945 72.475 145.951 72.6232 145.988C72.7713 146.026 72.91 146.094 73.0305 146.188C73.1509 146.282 73.2504 146.4 73.3226 146.535C73.3949 146.669 73.4382 146.818 73.45 146.97L74.29 156.77L76.72 144.41C76.769 144.16 76.9038 143.936 77.1011 143.775C77.2983 143.614 77.5456 143.528 77.8 143.53C77.9479 143.531 78.0941 143.562 78.2297 143.621C78.3654 143.68 78.4877 143.766 78.5895 143.873C78.6913 143.981 78.7703 144.107 78.822 144.246C78.8736 144.385 78.8967 144.532 78.89 144.68L78.2 158.45L81.27 146.7C81.3071 146.554 81.373 146.417 81.4639 146.297C81.5549 146.176 81.6689 146.076 81.7993 146C81.9298 145.925 82.074 145.876 82.2236 145.857C82.3731 145.838 82.5249 145.849 82.67 145.89C82.9111 145.958 83.123 146.104 83.2731 146.304C83.4231 146.505 83.5028 146.75 83.5 147L82.11 159.65L84.72 161.89V157.41L87.85 152.15C87.9615 151.957 88.143 151.814 88.3571 151.75C88.5711 151.687 88.8013 151.708 89 151.81C89.2021 151.913 89.3571 152.09 89.4333 152.304C89.5095 152.517 89.5012 152.752 89.41 152.96L87.33 157.6C87.33 157.6 91.44 174.38 91.62 174.94C91.8 175.5 90.88 178.49 90.32 179.61C89.76 180.73 64.76 233.7 63.32 235.75C61.88 237.8 51.76 240.97 47.32 236.12C42.88 231.27 44.32 226.42 46.76 220.83C49.2 215.24 82.11 175 82.11 175Z" fill="white" stroke="#263238" stroke-miterlimit="10"/>
<path d="M85.84 288.46L100 296.65" stroke="#808080" stroke-linecap="round" stroke-linejoin="round"/>
<path d="M143.19 282.87L134.63 294.04" stroke="#808080" stroke-linecap="round" stroke-linejoin="round"/>
<path d="M30 466H477" stroke="#263238" stroke-linecap="round" stroke-linejoin="round"/>
</svg>
