<svg width="525" height="525" viewBox="0 0 525 525" fill="none" xmlns="http://www.w3.org/2000/svg">
<g clip-path="url(#clip0_21_89)">
<path d="M262.5 448.938C374.937 448.938 466.085 443.616 466.085 437.052C466.085 430.488 374.937 425.166 262.5 425.166C150.063 425.166 58.9155 430.488 58.9155 437.052C58.9155 443.616 150.063 448.938 262.5 448.938Z" fill="#F5F5F5"/>
<path d="M525.126 401.058H0.125977V401.321H525.126V401.058Z" fill="#E0E0E0"/>
<path d="M115.017 413.647H54.3585V413.91H115.017V413.647Z" fill="#E0E0E0"/>
<path d="M247.569 407.946H219.933V408.209H247.569V407.946Z" fill="#E0E0E0"/>
<path d="M311.514 407.81H257.67V408.072H311.514V407.81Z" fill="#E0E0E0"/>
<path d="M414.004 410.959H400.89V411.222H414.004V410.959Z" fill="#E0E0E0"/>
<path d="M355.603 410.959H303.292V411.222H355.603V410.959Z" fill="#E0E0E0"/>
<path d="M135.576 413.647H125.181V413.91H135.576V413.647Z" fill="#E0E0E0"/>
<path d="M467.985 410.959H422.572V411.222H467.985V410.959Z" fill="#E0E0E0"/>
<path d="M248.976 57.2881H46.2C44.9236 57.2893 43.6808 57.697 42.6518 58.4522C41.6229 59.2074 40.8613 60.2708 40.4775 61.4881C40.3045 62.035 40.216 62.605 40.215 63.1786V348.233C40.215 349.821 40.8452 351.344 41.9673 352.468C43.0894 353.592 44.6117 354.225 46.2 354.228H248.976C250.566 354.228 252.091 353.596 253.215 352.472C254.34 351.348 254.971 349.823 254.971 348.233V63.2836C254.971 61.6935 254.34 60.1685 253.215 59.0441C252.091 57.9198 250.566 57.2881 248.976 57.2881ZM254.709 348.233C254.706 349.752 254.101 351.209 253.027 352.283C251.952 353.358 250.496 353.963 248.976 353.966H46.2C44.6813 353.963 43.2258 353.358 42.1529 352.283C41.08 351.208 40.4775 349.751 40.4775 348.233V63.2311C40.4775 61.7124 41.08 60.2558 42.1529 59.1809C43.2258 58.1061 44.6813 57.5009 46.2 57.4981H248.976C250.495 57.5036 251.95 58.1094 253.024 59.1834C254.098 60.2573 254.703 61.7123 254.709 63.2311V348.233Z" fill="#E0E0E0"/>
<path d="M476.101 57.2881H273.346C271.766 57.2908 270.251 57.9161 269.128 59.0286C268.006 60.141 267.368 61.651 267.351 63.2311V348.233C267.351 349.823 267.983 351.348 269.107 352.472C270.231 353.596 271.756 354.228 273.346 354.228H476.101C477.688 354.223 479.208 353.588 480.327 352.465C481.447 351.341 482.076 349.819 482.076 348.233V63.2311C482.062 61.6537 481.427 60.1454 480.309 59.0329C479.191 57.9204 477.679 57.2936 476.101 57.2881ZM481.834 348.233C481.832 349.752 481.227 351.209 480.152 352.283C479.078 353.358 477.621 353.963 476.101 353.966H273.346C271.826 353.966 270.368 353.362 269.293 352.286C268.217 351.211 267.613 349.753 267.613 348.233V63.2311C267.616 61.7115 268.221 60.2549 269.296 59.1803C270.37 58.1058 271.827 57.5009 273.346 57.4981H476.101C477.62 57.5036 479.075 58.1094 480.149 59.1834C481.223 60.2573 481.829 61.7123 481.834 63.2311V348.233Z" fill="#E0E0E0"/>
<path d="M389.707 108.874H500.85C500.85 108.874 494.14 96.7155 480.301 100.474C480.301 100.474 481.982 80.157 471.072 76.902C460.163 73.647 454.272 86.2155 454.272 86.2155C454.272 86.2155 446.722 62.727 432.463 65.667C418.204 68.607 412.335 92.967 412.335 92.967C412.335 92.967 391.387 85.386 389.707 108.874Z" fill="#F5F5F5"/>
<path d="M229.016 148.638H340.2C340.2 148.638 333.48 136.469 319.641 140.238C319.641 140.238 321.321 119.921 310.412 116.655C299.502 113.39 293.612 125.979 293.612 125.979C293.612 125.979 286.062 102.491 271.803 105.42C257.544 108.35 251.664 132.72 251.664 132.72C251.664 132.72 230.696 125.15 229.016 148.638Z" fill="#F5F5F5"/>
<path d="M226.999 73.71H40.593V401.058H226.999V73.71Z" fill="#F5F5F5"/>
<path d="M195.94 178.248H77.7734V401.321H195.94V178.248Z" fill="#FAFAFA"/>
<path d="M188.475 185.336H86.289V401.321H188.475V185.336Z" fill="#E6E6E6"/>
<path d="M233.751 76.0935H40.551V61.5405C41.0373 60.2745 41.9044 59.1906 43.0329 58.4383C44.1613 57.686 45.4953 57.3024 46.851 57.3405H227.146L227.23 57.5505L231.966 71.064L233.751 76.0935Z" fill="#EBEBEB"/>
<path d="M49.917 84.8822C55.2578 84.8822 59.5875 80.9474 59.5875 76.0937C59.5875 71.2399 55.2578 67.3052 49.917 67.3052C44.5761 67.3052 40.2465 71.2399 40.2465 76.0937C40.2465 80.9474 44.5761 84.8822 49.917 84.8822Z" fill="#EBEBEB"/>
<path d="M69.2685 84.8822C74.6093 84.8822 78.939 80.9474 78.939 76.0937C78.939 71.2399 74.6093 67.3052 69.2685 67.3052C63.9276 67.3052 59.598 71.2399 59.598 76.0937C59.598 80.9474 63.9276 84.8822 69.2685 84.8822Z" fill="#EBEBEB"/>
<path d="M88.62 84.8822C93.9608 84.8822 98.2905 80.9474 98.2905 76.0937C98.2905 71.2399 93.9608 67.3052 88.62 67.3052C83.2791 67.3052 78.9495 71.2399 78.9495 76.0937C78.9495 80.9474 83.2791 84.8822 88.62 84.8822Z" fill="#EBEBEB"/>
<path d="M107.971 84.8822C113.312 84.8822 117.642 80.9474 117.642 76.0937C117.642 71.2399 113.312 67.3052 107.971 67.3052C102.631 67.3052 98.301 71.2399 98.301 76.0937C98.301 80.9474 102.631 84.8822 107.971 84.8822Z" fill="#EBEBEB"/>
<path d="M127.323 84.8822C132.664 84.8822 136.993 80.9474 136.993 76.0937C136.993 71.2399 132.664 67.3052 127.323 67.3052C121.982 67.3052 117.652 71.2399 117.652 76.0937C117.652 80.9474 121.982 84.8822 127.323 84.8822Z" fill="#EBEBEB"/>
<path d="M146.674 84.8822C152.015 84.8822 156.345 80.9474 156.345 76.0937C156.345 71.2399 152.015 67.3052 146.674 67.3052C141.334 67.3052 137.004 71.2399 137.004 76.0937C137.004 80.9474 141.334 84.8822 146.674 84.8822Z" fill="#EBEBEB"/>
<path d="M166.015 84.8822C171.356 84.8822 175.686 80.9474 175.686 76.0937C175.686 71.2399 171.356 67.3052 166.015 67.3052C160.675 67.3052 156.345 71.2399 156.345 76.0937C156.345 80.9474 160.675 84.8822 166.015 84.8822Z" fill="#EBEBEB"/>
<path d="M185.367 84.8822C190.708 84.8822 195.037 80.9474 195.037 76.0937C195.037 71.2399 190.708 67.3052 185.367 67.3052C180.026 67.3052 175.696 71.2399 175.696 76.0937C175.696 80.9474 180.026 84.8822 185.367 84.8822Z" fill="#EBEBEB"/>
<path d="M204.718 84.8822C210.059 84.8822 214.389 80.9474 214.389 76.0937C214.389 71.2399 210.059 67.3052 204.718 67.3052C199.378 67.3052 195.048 71.2399 195.048 76.0937C195.048 80.9474 199.378 84.8822 204.718 84.8822Z" fill="#EBEBEB"/>
<path d="M233.751 76.0937C233.751 80.9447 229.414 84.8822 224.07 84.8822C218.725 84.8822 214.389 80.9447 214.389 76.0937C214.389 71.2427 218.725 67.3052 224.07 67.3052C225.581 67.2838 227.077 67.6064 228.445 68.2486C229.813 68.8907 231.017 69.8356 231.966 71.0117L233.751 76.0937Z" fill="#EBEBEB"/>
<path d="M226.999 102.123H40.593V105.189H226.999V102.123Z" fill="#FAFAFA"/>
<path d="M371.595 331.674H227.01V338.174H371.595V331.674Z" fill="#E0E0E0"/>
<path d="M257.418 401.048H235.588V299.733L246.498 290.409L257.418 299.733V401.048Z" fill="#E6E6E6"/>
<path d="M288.687 401.048H266.857V299.733L277.777 290.409L288.687 299.733V401.048Z" fill="#E6E6E6"/>
<path d="M319.967 401.048H298.137V299.733L309.046 290.409L319.967 299.733V401.048Z" fill="#E6E6E6"/>
<path d="M351.235 401.048H329.406V299.733L340.326 290.409L351.235 299.733V401.048Z" fill="#E6E6E6"/>
<path d="M382.504 401.048H360.685V299.733L371.595 290.409L382.504 299.733V401.048Z" fill="#E6E6E6"/>
<path d="M156.944 94.0591C156.944 94.0591 154.917 89.1031 142.433 90.5731C129.948 92.0431 128.657 108.57 122.42 120.32C116.183 132.069 109.557 137.771 109.557 137.771C109.557 137.771 108.644 144.932 122.231 148.974C135.818 153.017 162.446 146.265 162.446 146.265C162.446 146.265 165.89 114.986 160.776 105.441C155.663 95.8966 156.944 94.0591 156.944 94.0591Z" fill="#263238"/>
<path d="M193.442 406.508L176.526 407.558C176.526 407.558 169.355 342.374 161.459 294.914C161.459 294.756 161.459 294.578 161.385 294.399C158.151 275.027 154.802 258.699 151.778 251.045C151.778 251.045 147.893 311.808 146.738 338.783C145.583 365.757 140.196 412.955 140.196 412.955L124.562 415.275C124.562 415.275 121.979 321.321 123.512 303.576C125.045 285.831 118.062 220.101 130.095 203.826H173.618C173.618 203.826 190.47 296.163 191.688 321.762C192.906 347.361 193.442 406.508 193.442 406.508Z" fill="#263238"/>
<path d="M136.521 413.165L136.269 418.205L135.681 429.87L126.924 431.172L126.725 418.583L126.651 413.742L136.521 413.165Z" fill="#FF8B7B"/>
<path d="M189.683 425.943L179.886 428.673C179.886 428.673 179.655 422.782 179.424 417.123C179.277 413.479 179.13 409.93 179.036 408.114C179.036 407.41 178.973 406.98 178.952 406.885L189.515 405.835V409.153L189.588 416.65L189.683 425.943Z" fill="#FF8B7B"/>
<path d="M139.209 427.287C139.209 427.287 140.837 420.767 143.409 421.092C145.982 421.418 139.209 427.287 139.209 427.287Z" stroke="#407BFF" stroke-miterlimit="10"/>
<path d="M139.944 427.287C139.944 427.287 146.066 422.972 147.2 425.187C148.334 427.403 139.944 427.287 139.944 427.287Z" stroke="#407BFF" stroke-miterlimit="10"/>
<path d="M193.442 427.949C193.442 427.949 194.807 421.05 196.35 421.05C197.894 421.05 193.442 427.949 193.442 427.949Z" stroke="#407BFF" stroke-miterlimit="10"/>
<path d="M193.116 430.09C193.116 430.09 196.707 423.024 198.587 424.546C200.466 426.069 193.116 430.09 193.116 430.09Z" stroke="#407BFF" stroke-miterlimit="10"/>
<path d="M146.853 435.75C146.853 435.75 128.184 436.233 126.83 436.065C125.475 435.897 123.974 435.823 123.869 434.353C123.869 433.639 124.509 429.303 124.614 427.791C124.719 426.279 124.341 425.491 126.242 425.008C128.142 424.525 137.372 423.454 138.485 424.599C139.598 425.743 143.399 430.101 146.213 430.605C149.027 431.109 151.389 430.909 151.589 432.505C151.788 434.101 151.851 435.634 146.853 435.75Z" fill="#263238"/>
<path d="M200.603 435.75C200.603 435.75 181.944 436.233 180.579 436.065C179.214 435.897 177.87 435.487 177.65 434.805C177.429 434.122 178.269 429.303 178.364 427.791C178.458 426.279 178.091 425.491 179.991 425.008C181.892 424.525 191.121 423.454 192.234 424.599C193.347 425.743 197.148 430.101 199.973 430.605C202.797 431.109 205.139 430.909 205.338 432.505C205.538 434.101 205.601 435.634 200.603 435.75Z" fill="#263238"/>
<path opacity="0.3" d="M161.385 294.389C158.151 275.016 154.802 258.689 151.778 251.034L153.783 240.03C153.783 240.03 158.981 279.3 161.385 294.389Z" fill="black"/>
<path opacity="0.2" d="M136.5 413.165L136.248 418.205C133.791 418.299 128.898 418.478 126.704 418.583L126.63 413.742L136.5 413.165Z" fill="black"/>
<path opacity="0.2" d="M189.609 416.64L179.424 417.123C179.277 413.48 179.13 409.931 179.036 408.114L189.536 409.164L189.609 416.64Z" fill="black"/>
<path d="M196.329 405.825L194.765 413.815L176.117 415.264L173.67 405.825H196.329Z" fill="#407BFF"/>
<path d="M142.706 408.429L141.068 416.325L121.601 417.249L121.611 408.429H142.706Z" fill="#407BFF"/>
<path d="M200.445 179.435C196.245 181.44 184.695 183.635 184.695 183.635C184.695 183.635 177.135 164.094 175.14 152.985C174.514 149.014 172.617 145.352 169.734 142.55C166.85 139.749 163.136 137.957 159.149 137.445C154.046 136.784 132.5 137.004 124.94 138.558C117.38 140.112 116.067 151.211 115.395 157.878C114.723 164.546 110.513 189.378 114.062 196.728C117.611 204.078 130.053 201.159 130.053 201.159V203.826H173.586L172.536 183.456C172.536 183.456 176.652 194.271 183.036 194.712C189.42 195.153 203.91 184.506 203.91 184.506L200.445 179.435ZM123.795 190.827C123.795 190.827 124.278 178.143 125.139 174.489L126.452 181.262L128.3 190.827H123.795Z" fill="#407BFF"/>
<path d="M151.484 187.95L158.33 179.666L167.937 178.196L169.407 186.732L162.057 189.42C162.057 189.42 158.519 193.683 151.452 192.948L151.484 187.95Z" fill="#FF8B7B"/>
<path d="M200.445 179.435L204.005 172.904L212.688 169.25L215.975 178.143L208.782 180.947C208.782 180.947 206.903 185.084 204.005 184.548L200.445 179.435Z" fill="#FF8B7B"/>
<path d="M151.631 129.486C151.583 130.241 151.583 130.999 151.631 131.754C151.736 133.193 151.463 135.828 154.287 137.214C152.828 140.364 149.31 148.26 147.179 150.938C143.934 148.281 136.311 137.561 136.311 137.561C136.311 137.561 141.666 131.754 137.823 120.813C137.823 120.813 132.426 116.865 133.508 114.692C134.747 112.161 138.264 113.526 139.01 114.597C138.222 113.442 134.558 100.769 139.01 96.1066C141.782 93.1981 144.554 93.1666 149.72 92.9566H150.15C153.458 92.8411 155.915 92.9566 155.915 92.9566C157.037 94.1662 158.027 95.4934 158.865 96.9151C161.208 100.74 162.644 105.05 163.065 109.515C164.042 119.921 161.994 128.352 151.631 129.486Z" fill="#FF8B7B"/>
<path d="M154.487 116.55C154.487 116.55 149.783 118.146 148.071 114.576" stroke="#263238" stroke-width="0.5" stroke-linecap="round" stroke-linejoin="round"/>
<path d="M148.806 101.535C148.019 101.512 147.242 101.71 146.562 102.107C145.883 102.505 145.329 103.085 144.963 103.782" stroke="#263238" stroke-linecap="round" stroke-linejoin="round"/>
<path d="M160.776 100.454C160.395 100.036 159.933 99.7005 159.419 99.466C158.905 99.2315 158.348 99.1031 157.784 99.0886" stroke="#263238" stroke-linecap="round" stroke-linejoin="round"/>
<path d="M156.45 114.618L155.526 106.754L160.157 112.697C160.157 112.697 159.705 114.744 156.45 114.618Z" fill="#FF5652"/>
<path d="M148.848 106.817C148.901 107.615 149.373 108.234 149.898 108.203C150.423 108.171 150.791 107.489 150.728 106.68C150.665 105.872 150.213 105.263 149.678 105.305C149.142 105.347 148.785 106.05 148.848 106.817Z" fill="#263238"/>
<path d="M158.004 105.504C158.067 106.313 158.529 106.932 159.054 106.89C159.579 106.848 159.947 106.176 159.884 105.368C159.821 104.559 159.359 103.95 158.834 103.992C158.309 104.034 157.952 104.706 158.004 105.504Z" fill="#263238"/>
<path d="M135.818 108.78C135.818 108.78 130.452 101.587 134.883 96.9255C137.655 94.017 145.11 92.1165 150.265 91.896C150.15 93.114 150.266 103.782 135.818 108.78Z" fill="#263238"/>
<path d="M158.949 96.9464C155.653 96.6134 152.559 95.1995 150.15 92.9249L149.741 92.4944C151.809 92.409 153.88 92.5569 155.915 92.9354C157.037 94.1451 158.027 95.4722 158.865 96.8939L158.949 96.9464Z" fill="#263238"/>
<path opacity="0.2" d="M151.662 131.754C149.38 131.06 147.355 129.704 145.845 127.859C147.654 128.761 149.617 129.313 151.631 129.486C151.594 130.242 151.604 131 151.662 131.754Z" fill="black"/>
<path opacity="0.2" d="M126.462 181.262L125.15 174.489V164.766C125.15 164.766 126.662 175.025 126.462 181.262Z" fill="black"/>
<path d="M319.43 149.805L242.892 154.138L246.226 213.043L322.764 208.711L319.43 149.805Z" fill="#407BFF"/>
<path opacity="0.3" d="M319.43 149.805L242.892 154.138L246.226 213.043L322.764 208.711L319.43 149.805Z" fill="black"/>
<path d="M291.612 151.386L215.074 155.718L218.409 214.623L294.947 210.291L291.612 151.386Z" fill="#407BFF"/>
<path opacity="0.3" d="M291.612 151.386L215.074 155.718L218.409 214.623L294.947 210.291L291.612 151.386Z" fill="white"/>
<path opacity="0.3" d="M301.08 156.476L284.742 157.456L285.073 162.969L301.411 161.989L301.08 156.476Z" fill="black"/>
<path opacity="0.5" d="M236.165 161.896L219.853 162.819L220.357 171.73L236.669 170.807L236.165 161.896Z" fill="white"/>
<path opacity="0.3" d="M241.862 185.133L216.828 186.55L217.221 193.5L242.255 192.083L241.862 185.133Z" fill="black"/>
<path d="M341.544 101.251L337.344 106.606C338.508 107.419 339.845 107.947 341.25 108.15L341.544 101.251Z" fill="#A02724"/>
<path d="M414.036 429.67L401.835 428.977L399.357 418.572L398.002 412.87L397.499 410.77L406.886 410.13L407.557 410.077L409.552 416.115L414.036 429.67Z" fill="#B55B52"/>
<path d="M343.875 431.382C344.106 432.212 332.545 430.731 332.545 430.731L332.136 421.019L331.821 413.522V413.112H331.915L343.655 414.278C343.655 414.278 343.655 417.428 343.655 421.008C343.676 425.607 343.738 430.931 343.875 431.382Z" fill="#B55B52"/>
<path d="M368.361 129.413C368.361 129.413 351.876 133.875 353.094 130.641C353.708 128.684 353.953 126.63 353.818 124.583C353.818 123.239 353.65 122.283 353.65 122.283C347.686 122.63 343.675 118.314 341.89 113.001C339.591 106.187 340.431 98.5741 343.224 92.1061C343.444 91.5811 344.074 89.3551 344.631 89.0821L351.099 86.1001C351.099 86.1001 357.399 90.2266 360.675 92.7886C363.951 95.3506 366.586 107.258 366.586 116.519C366.586 125.78 368.361 129.413 368.361 129.413Z" fill="#B55B52"/>
<path d="M341.05 99.2881C340.759 99.3677 340.501 99.5377 340.312 99.7735C340.123 100.009 340.014 100.299 340 100.601C339.957 100.881 340.001 101.168 340.124 101.423C340.248 101.678 340.447 101.889 340.693 102.029L341.05 99.2881Z" fill="#263238"/>
<path d="M341.05 93.954C341.736 93.9386 342.412 94.1248 342.993 94.4895" stroke="#263238" stroke-linecap="round" stroke-linejoin="round"/>
<path d="M346.783 110.995C346.783 110.995 351.572 118.471 359.195 120.183C366.818 121.894 369.222 119.248 370.24 114.933C371.123 110.864 373.077 107.105 375.9 104.044C378.536 101.325 376.95 93.9435 373.601 87.8745C373.601 87.8745 377.192 84.861 371.406 81.963C365.621 79.065 363.489 83.8845 358.47 81.0705C353.451 78.2565 360.15 77.322 355.414 86.1C350.679 94.878 348.065 88.494 347.361 92.4C346.658 96.306 342.993 103.089 346.783 110.995Z" fill="#263238"/>
<path d="M347.361 94.2166C346.888 94.0591 331.705 88.5676 331.558 86.0791C331.411 83.5906 343.329 88.1161 343.78 88.2946L346.857 93.1561L347.361 94.2166Z" fill="#407BFF"/>
<path d="M378 100.233C377.853 100.684 376.95 103.677 376.562 103.677L375.291 103.603C374.108 103.505 372.932 103.369 371.763 103.194C370.472 102.994 369.201 102.742 367.952 102.448H367.899C366.629 102.144 365.379 101.808 364.161 101.398C361.171 100.496 358.237 99.4194 355.373 98.175C353.756 97.4715 352.328 96.789 351.173 96.201C348.81 95.025 347.403 94.1955 347.403 94.1955L347.193 93.849L346.332 92.4945L344.495 89.586L343.864 88.6095V88.536C343.835 88.4474 343.835 88.3516 343.864 88.263C343.927 87.15 346.206 84.063 346.615 83.538C348.302 81.2839 350.45 79.4154 352.915 78.057C356.296 76.188 360.108 77.007 363.699 77.637C364.887 77.8836 366.045 78.2568 367.154 78.75L367.857 79.0545L367.994 79.1175C368.12 79.191 368.256 79.2435 368.382 79.3065L368.613 79.422C371.281 80.6716 373.709 82.3812 375.785 84.4725C380.51 89.775 378.588 98.5215 378 100.233Z" fill="#407BFF"/>
<path d="M372.865 135.051C372.865 135.051 372.109 129.801 370.461 128.751C368.812 127.701 352.432 127.858 349.881 129.654C347.329 131.449 347.781 137.319 347.781 137.319L372.865 135.051Z" fill="#407BFF"/>
<path d="M343.791 102.701C343.791 102.701 346.584 99.0886 349.576 101.325C352.569 103.562 350.196 108.864 346.679 110.355C346.679 110.355 342.132 111.836 341.544 107.205C340.956 102.575 343.791 102.701 343.791 102.701Z" fill="#B55B52"/>
<path d="M332.588 228.406C332.588 228.406 326.34 288.183 324.597 315.672C322.854 343.161 329.259 413.458 329.259 413.458H344.452C344.452 413.458 346.195 343.623 348.82 322.675C351.445 301.728 360.161 273.325 360.161 273.325C360.161 273.325 365.411 318.276 370.661 336.609C375.911 354.942 392.963 410.949 392.963 410.949L410.456 407.589C410.456 407.589 389.456 335.737 389.456 313.477C389.456 291.217 389.655 246.278 384.426 228.427L332.588 228.406Z" fill="#407BFF"/>
<path opacity="0.3" d="M410.424 407.61L392.942 410.981C392.942 410.981 375.9 354.973 370.65 336.64C367.763 326.56 364.886 308.406 362.88 294.115C361.2 282.45 360.15 273.357 360.15 273.357C360.15 273.357 351.425 301.707 348.8 322.707C346.175 343.707 344.442 413.49 344.442 413.49H329.259C329.259 413.49 322.854 343.203 324.597 315.714C326.34 288.225 332.588 228.438 332.588 228.438H384.374C389.624 246.288 389.414 291.28 389.414 313.488C389.414 335.695 410.424 407.61 410.424 407.61Z" fill="black"/>
<path opacity="0.3" d="M362.869 294.116C361.2 282.45 360.15 273.357 360.15 273.357L361.2 257.04L362.869 294.116Z" fill="black"/>
<path d="M327.611 410.54H345.818L344.925 418.037H328.324L327.611 410.54Z" fill="#263238"/>
<path d="M390.747 409.447L410.435 402.129L412.923 412.776L393.708 418.036L390.747 409.447Z" fill="#263238"/>
<path opacity="0.2" d="M406.885 410.13L398.002 412.87L399.357 418.572L409.552 416.115L406.885 410.13Z" fill="black"/>
<path opacity="0.2" d="M343.655 421.05H332.105L331.789 413.553L331.863 413.154L343.602 414.32C343.602 414.32 343.634 417.428 343.655 421.05Z" fill="black"/>
<path d="M326.55 435.11C326.623 435.309 319.284 431.035 321.3 429.04C323.316 427.045 326.55 435.11 326.55 435.11Z" stroke="#407BFF" stroke-miterlimit="10"/>
<path d="M327.6 434.805C327.547 435.015 323.505 427.549 326.256 426.888C329.007 426.226 327.6 434.805 327.6 434.805Z" stroke="#407BFF" stroke-miterlimit="10"/>
<path d="M400.144 430.574C400.144 430.574 397.74 422.835 395.409 424.106C393.078 425.376 400.144 430.574 400.144 430.574Z" stroke="#407BFF" stroke-miterlimit="10"/>
<path d="M399.494 431.245C399.494 431.245 394.065 425.25 392.48 427.35C390.894 429.45 399.494 431.245 399.494 431.245Z" stroke="#407BFF" stroke-miterlimit="10"/>
<path d="M414.487 428.957H401.446C401.446 428.957 393.907 433.493 390.6 433.913C387.292 434.333 385.35 434.532 385.444 436.905C385.539 439.278 387.544 439.488 394.317 439.383C401.089 439.278 414.529 440.108 415.989 438.764C417.448 437.42 416.524 434.889 414.487 428.957Z" fill="#263238"/>
<path d="M343.875 430.573L331.275 430.668C331.275 430.668 323.736 435.204 320.439 435.624C317.142 436.044 315.189 436.243 315.273 438.616C315.357 440.989 317.373 441.199 324.156 441.094C330.939 440.989 342.898 441.966 344.358 440.622C345.817 439.278 345.009 437.073 343.875 430.573Z" fill="#263238"/>
<path opacity="0.3" d="M343.781 88.2944C344.106 89.9639 344.442 91.2449 347.204 94.1534C343.697 92.8514 331.684 88.2104 331.558 86.0789C331.432 83.9474 340.757 87.1499 343.781 88.2944Z" fill="black"/>
<path opacity="0.3" d="M343.781 88.5569C343.751 88.4683 343.751 88.3725 343.781 88.2839C343.781 88.2839 343.781 88.3994 343.781 88.6199V88.5569Z" fill="black"/>
<path opacity="0.3" d="M347.361 94.2164L347.035 94.0904C347.052 94.0464 347.073 94.0041 347.098 93.9644L347.361 94.2164Z" fill="black"/>
<path d="M378 100.233C377.853 100.684 376.95 103.677 376.562 103.677L375.291 103.603C374.108 103.505 372.932 103.369 371.763 103.194C370.472 102.994 369.201 102.742 367.952 102.448H367.899C366.629 102.144 365.379 101.808 364.161 101.398C361.171 100.496 358.237 99.4194 355.373 98.175C353.756 97.4715 352.328 96.789 351.173 96.201C348.81 95.025 347.403 94.1955 347.403 94.1955L347.193 93.849L346.332 92.4945L344.495 89.586L343.864 88.6095V88.536C343.835 88.4474 343.835 88.3516 343.864 88.263C343.927 87.15 346.206 84.063 346.615 83.538C348.302 81.2839 350.45 79.4154 352.915 78.057C356.296 76.188 360.108 77.007 363.699 77.637C364.887 77.8836 366.045 78.2568 367.154 78.75L367.857 79.0545L367.994 79.1175C368.12 79.191 368.256 79.2435 368.382 79.3065L368.613 79.422C371.281 80.6716 373.709 82.3812 375.785 84.4725C380.51 89.775 378.588 98.5215 378 100.233Z" fill="#407BFF"/>
<path opacity="0.2" d="M357.346 121.275C356.229 122.438 355.051 123.542 353.818 124.582C353.818 123.238 353.65 122.283 353.65 122.283C354.917 122.09 356.157 121.752 357.346 121.275Z" fill="black"/>
<path d="M332.587 228.995V175.214L322.77 171.213C322.77 171.213 324.649 142.517 338.625 137.991C352.6 133.466 377.475 131.565 384.321 137.991C388.647 142.076 389.224 148.628 389.382 154.245C389.718 165.69 386.725 176.883 386.064 188.265C385.539 197.526 385.224 206.787 385.014 216.059C385.014 216.773 384.741 228.995 384.72 228.995H332.587Z" fill="#263238"/>
<path d="M337.963 177.051C337.963 177.051 330.697 201.054 323.515 202.555C316.333 204.057 291.805 190.669 291.805 190.669H280.854L279.3 181.041C279.3 181.041 289.495 177.261 296.289 181.786C296.289 181.786 312.154 188.706 317.436 190.722L325.09 172.2L337.963 177.051Z" fill="#B55B52"/>
</g>
<defs>
<clipPath id="clip0_21_89">
<rect width="525" height="525" fill="white"/>
</clipPath>
</defs>
</svg>
