<svg xmlns="http://www.w3.org/2000/svg" enable-background="new 0 0 800 800" viewBox="0 0 800 800"><path fill="#847895" d="M544.125,763.235c0.005-4.959-75.084-4.113-144.915-4.113      c-69.831,0-106.283-0.323-105.431,4.113c0.537,2.797,37.493,3.455,107.324,3.455       C470.934,766.69,544.122,766.394,544.125,763.235z" class="color847895 svgShape"/><path fill="#4a3333" d="M321.317,753.149c-2.393,3.805-2.651,8.376,1.635,8.813c5.429,0.553,35.592,1.971,42.953,0      c6.869-1.839,1.615-12.581-2.588-11.268C359.114,752.008,321.317,753.149,321.317,753.149z" class="color4a3333 svgShape"/><path fill="#f29e7e" d="M321.635,754.831c0.023,0.069,0.046,0.138,0.075,0.208c0.104,0.271,0.236,0.536,0.404,0.784          c0.058,0.092,0.121,0.185,0.196,0.277c1.234,1.545,42.498,0.922,44.141-1.274c0.138-0.184-3.938-13.146-4.036-13.261          c-4.042-4.716-4.768-13.711-4.612-19.603c0.173-6.492,0.928-10.274,2.208-16.639c-8.671-0.68-17.343-1.355-26.014-2.035          c0.773,0.058-0.179,13.33-0.444,14.529c-1.124,5.033-2.819,9.945-5.062,14.598c-1.136,2.358-2.445,4.388-3.586,6.504          c-0.986,1.822-1.851,3.713-2.375,5.944c-0.335,1.424-0.911,3.534-1.147,5.633          C321.197,752.046,321.208,753.591,321.635,754.831z" class="colorf29e7e svgShape"/><path fill="#a34b22" d="M321.635,754.831c0.023,0.069,0.046,0.138,0.075,0.208c0.104,0.271,0.236,0.536,0.404,0.784          c0.058,0.092,0.121,0.185,0.196,0.277c0.991,1.24,5.917,0.873,7.273,0.953c4.991,0.296,8.842,0.406,13.841,0.447          c5.033,0.042,10.073,0.016,15.101-0.229c1.804-0.088,3.617-0.187,5.409-0.425c2.4-0.319,4.046-1.231,4.003-4.085          c-0.022-1.449-0.55-2.839-1.133-4.165c-0.617-1.404-2.929-6.155-4.095-7.147c-0.665-0.565-7.312-11.681-14.928-12.867          c-13.643-2.126-21.006,7.044-22.877,10.336c-0.986,1.822-1.851,3.713-2.375,5.944c-0.335,1.424-0.911,3.534-1.147,5.633          C321.323,751.948,321.191,753.505,321.635,754.831z" class="colora34b22 svgShape"/><path fill="#4a3333" d="M346.335,739.755c4.308,0.355,8.636,0.729,12.75,2.064c2.387,0.774,5.58,1.618,6.711,3.954        c0.579,1.197-1.307,2.244-1.89,1.039c-1.04-2.149-5.078-2.985-7.288-3.56c-3.355-0.873-6.828-1.154-10.283-1.438        C344.942,741.699,344.93,739.639,346.335,739.755z" class="color4a3333 svgShape"/><path fill="#f29e7e" d="M435.792,706.499c4.819-1.12,5.656-2.02,10.505-3.033c5.684-1.188,11.288-3.222,17.025-4.269          c-0.164,4.797-0.917,9.648-0.411,14.44c0.614,5.813,5.195,11.023,9.21,14.714c4.777,4.391,10.792,8.162,16.843,10.655          c9.328,3.841,17.01,5.487,19.205,10.426c2.102,4.73,0.549,5.487-1.097,6.036c-1.646,0.549-61.97,1.653-68.006-1.64          c-4.911-2.678-5.996-7.861-5.235-19.275C434.164,729.542,436.123,727.787,435.792,706.499z" class="colorf29e7e svgShape"/><path fill="#a34b22" d="M430.907,748.916c0.696-4.293,0.375-9.503,2.923-14.363c6.26,2.87,9.356,4.951,15.808,1.624          c3.681-1.898,5.456-5.345,8.157-8.281c2.064-2.243,4.416-2.592,6.977-2.525c2.682,0.071,5.271,1.075,7.287,2.845          c5.438,4.777,12.104,8.812,16.905,10.79c9.328,3.841,17.01,5.487,19.205,10.426c0.818,1.844,1.081,3.084,0.999,3.945          c-0.126,1.345-1.092,1.756-2.096,2.091c-1.646,0.549-67.735,3.292-73.771,0          C431.319,754.386,430.419,751.956,430.907,748.916z" class="colora34b22 svgShape"/><g><path fill="#4a3333" d="M474.082,740.831c7.371-0.189,14.734-2.289,22.005-0.158c1.421,0.417,0.816,2.643-0.613,2.224        c-7.034-2.061-14.257,0.057-21.392,0.24C472.597,743.176,472.598,740.869,474.082,740.831z" class="color4a3333 svgShape"/></g><path fill="#4a3333" d="M431.089,751.22c-3.937,7.021-2.452,10.42-1.314,11.208c1.138,0.788,77.229,0.47,79.855-0.466      c2.627-0.935,2.224-8.88-0.464-8.586C506.479,753.672,431.089,751.22,431.089,751.22z" class="color4a3333 svgShape"/><g><path fill="#6168a8" d="M381.85,711.393c1.63-6.882,2.103-14.029,3.145-21.066      c7.003-47.289,11.513-84.128,16.815-119.466c6.73,42.713,8.753,96.272,13.518,142.008c0.738,7.08,60.658-8.867,60.81-15.76      c0.432-19.614-0.565-107.336-1.444-121.567c-3.999-64.784-12.092-149.976-12.092-149.976L338.1,434.6      c0,0-12.468,146.973-18.388,267.761C319.143,713.965,379.392,721.77,381.85,711.393z" class="color6168a8 svgShape"/></g><g><path fill="#333a74" d="M411.397,501.97l-10.164,71.747c-0.124,0.875,0.485,1.684,1.36,1.808      c0.076,0.011,0.152,0.017,0.226,0.017c0.785,0,1.469-0.577,1.582-1.376l10.204-72.03      C413.556,501.997,412.483,501.95,411.397,501.97z" class="color333a74 svgShape"/></g><g><path fill="#333a74" d="M412.123,536.856c7.762,35.318,14.273,70.909,19.542,106.684      c1.461,9.921,2.826,19.855,4.083,29.804c0.125,0.992-1.429,0.98-1.556,0c-4.617-35.668-10.336-71.183-17.322-106.466      c-1.96-9.897-4.003-19.778-6.14-29.639C410.535,536.334,411.923,535.947,412.123,536.856z" class="color333a74 svgShape"/></g><g><path fill="#b3ab75" d="M382.119,299.056c-17.051,2.627-30.885,3.932-34.738,4.243     c-3.853,0.311-39.052,16.331-41.329,16.902c-2.277,0.571,4.553-18.608,5.429-21.978c0.876-3.37-31.172-18.265-34.499-17.997     c-3.327,0.267-16.987,41.476-18.563,58.873c-1.576,17.397,21.077,25.459,32.398,28.036c11.733,2.671,35.262,5.237,37.013,6.813     c1.751,1.576,5.042,53.921,10.27,60.653c5.228,6.732,118.23-7.171,123.473-14.574c5.242-7.403,6.555-41.027,7.869-46.018     c1.313-4.991,71.975-5.286,74.076-21.425c2.102-16.139-21.54-70.514-24.692-76.556c-3.152-6.042-37.301,9.825-38.614,16.339     c-1.313,6.514,12.876,27.509,12.876,27.509s-31.299-19.675-38.374-20.072C447.638,299.406,382.119,299.056,382.119,299.056z" class="colorb3ab75 svgShape"/><path fill="#e9946b" d="M380.459,270.216c0.311,18.384,0.088,32.793,1.246,35.832c2.497,6.552,10.427,12.884,19.29,12.94      c7.77,0.049,14.036-8.822,15.496-11.382c0.167-0.293,0.559-1.239,0.77-2.989c1.157-9.603,1.023-38.925,1.023-38.925      L380.459,270.216z" class="colore9946b svgShape"/><path fill="#1a1a1a" d="M417.387,303.443c0.67-6.954,0.847-21.01,0.89-29.872c-1.203-4.109-2.135-7.092-2.295-7.603      l-35.523,4.248c0.056,3.254,0.101,6.373,0.143,9.334C392.679,294.979,408.463,301.241,417.387,303.443z" class="color1a1a1a svgShape"/><path fill="#842a2e" d="M433.184,234.528c0,0,15.451-9.861,13.935-32.577c-1.516-22.716-20.46-12.746-21.915-11.907       c-1.573-4.981-7.185-12.566-21.094-10.847c-17.337,2.143-29.566,19.646-29.566,19.646s-20.274,0.848-19.768,20.845       c0.643,25.409,9.435,45.698,20.007,54.001C380.145,277.899,433.184,234.528,433.184,234.528z" class="color842a2e svgShape"/><path fill="#842a2e" d="M376.847,205.94c-0.105,0.011-0.213,0.01-0.323-0.004c-0.754-0.099-1.284-0.79-1.185-1.545       c0.004-0.029,0.403-3.454-1.596-5.626c-1.26-1.37-3.275-2.008-5.986-1.898c-1.888,0.082-3.654,0.502-5.249,1.269       c-0.686,0.326-1.508,0.039-1.837-0.646c-0.329-0.686-0.039-1.509,0.646-1.838c1.936-0.927,4.071-1.451,6.328-1.536       c3.57-0.146,6.31,0.798,8.144,2.804c2.861,3.131,2.306,7.64,2.281,7.831C377.985,205.394,377.466,205.876,376.847,205.94z" class="color842a2e svgShape"/><path fill="#e9946b" d="M435.441,240.183c-0.618,4.537-0.597,39.855-10.409,49.322         c-5.185,5.002-18.082,4.533-24.124,3.295c-18.605-3.813-28.551-17.131-26.526-34.891c0,0-17.292-6.821-8.253-19.349         c6.157-8.533,15.243,4.276,15.243,4.276s4.173-5.183,8.186-17.766c10.755,2.492,34.879,0.047,42.26-8.555         C431.819,216.514,436.455,232.742,435.441,240.183z" class="colore9946b svgShape"/><path fill="#1a1a1a" d="M402.876 243.343c-.607-.713-1.352-1.138-2.22-1.111-.099-.012-.197-.02-.293-.024-.036-.006-.068-.02-.107-.019-.037 0-.064.012-.099.014-2.996.045-4.148 4.04-2.908 6.426.136.561.382 1.078.841 1.432.453.351 1.027.531 1.607.552.048.027.09.059.149.076 1.365.381 2.395-.331 3.024-1.471C404.275 247.673 404.301 245.018 402.876 243.343zM432.788 244.122c-.607-.713-1.352-1.138-2.221-1.111-.1-.012-.197-.02-.293-.024-.036-.006-.068-.02-.107-.019-.037 0-.064.013-.099.014-2.996.045-4.148 4.04-2.908 6.426.136.561.382 1.078.841 1.432.453.351 1.027.531 1.607.552.047.027.09.059.149.076 1.365.381 2.395-.331 3.024-1.471C434.187 248.452 434.214 245.798 432.788 244.122z" class="color1a1a1a svgShape"/><path fill="#d45c48" d="M419.642,264.133c-0.054-0.784-0.77-1.42-1.559-1.358c-0.777,0.061-1.555,0.122-2.332,0.183         c-0.787,0.062-1.412,0.767-1.358,1.559c0.054,0.784,0.77,1.42,1.559,1.358c0.777-0.061,1.554-0.122,2.332-0.183         C419.071,265.631,419.696,264.926,419.642,264.133z" class="colord45c48 svgShape"/><path fill="#842a2e" d="M409.028 225.769c-1.76 1.037-3.665 1.788-5.37 2.922-1.73 1.15-3.31 2.514-4.993 3.73-1.518 1.096.061 3.558 1.592 2.453 1.682-1.214 3.26-2.587 4.993-3.73 1.708-1.127 3.61-1.885 5.37-2.921C412.24 227.267 410.65 224.813 409.028 225.769zM437.511 233.995c-.893-1.595-2.205-2.421-3.757-3.292-1.63-.915-3.248 1.523-1.601 2.447 1.027.576 2.132 1.058 2.73 2.126C435.799 236.913 438.431 235.639 437.511 233.995z" class="color842a2e svgShape"/><path fill="#1a1a1a" d="M407.225,276.936c0.495-1.482,1.609-2.801,3.1-3.38c1.751-0.679,6.857-0.902,7.624,1.417         c0.065,0.196,0.1,0.375,0.109,0.538c0.112,0.256,0.187,0.554,0.21,0.91c0.06,0.929-0.257,1.845-0.694,2.672         c-0.695,1.316-1.706,2.474-2.93,3.354c-1.417,1.019-3.211,1.672-4.951,1.375c-0.671-0.115-1.34-0.384-1.785-0.886         c-0.347-0.391-0.532-0.891-0.673-1.388C406.809,280.043,406.729,278.418,407.225,276.936z" class="color1a1a1a svgShape"/><path fill="#e9946b" d="M332.364,242.199c-1.371-0.598-2.936-0.739-4.391-0.394c-1.527,0.361-2.882,1.223-4.333,1.824       c-1.45,0.6-3.161,0.922-4.554,0.198c-1.178-0.613-1.883-1.839-2.524-3.001c-2.549-4.619-2.887-9.926-3.189-15.08       c-0.153-2.616-0.302-5.242-0.768-7.825c-0.372-2.059-0.713-5.294-2.157-6.878c-0.577-0.633-1.606-1.062-2.265-0.515       c-0.204,0.169-0.337,0.408-0.449,0.648c-0.99,2.12-0.635,4.552-0.582,6.81c0.038,1.633,0.041,3.269-0.055,4.901       c-0.045,0.779,0.285,3.205,0.16,3.974c-0.08,0.494-0.379,2.099-1.218,1.426c-0.467-0.375-0.696-0.862-0.984-1.369       c-2.355-4.157-3.73-10.55-5.414-14.98c-0.537-1.412-1.243-2.897-2.579-3.603c-0.236-0.124-0.499-0.223-0.763-0.189       c-0.977,0.125-1.166,1.743-1.282,2.495c-0.247,1.608,0.123,2.871,0.457,4.383c0.367,1.661,0.454,3.384,0.849,5.055       c0.479,2.027,1.069,4.031,1.443,6.081c0.187,1.026,0.9,3.814,0.836,4.862c-0.022,0.359-0.115,0.7-0.31,0.992       c-0.16,0.241-3.076-6.31-3.283-6.788c-0.966-2.231-1.835-4.504-2.596-6.813c-0.226-0.685-0.552-1.131-1.067-1.635       c-0.516-0.504-1.247-0.843-1.956-0.714c-0.889,0.162-1.518,1.022-1.693,1.909c-0.174,0.886,0.013,1.8,0.209,2.682       c0.528,2.368,1.126,4.72,1.794,7.053c0.29,1.013,3.514,9.265,1.686,9.175c-0.841-0.041-2.995-3.752-3.579-4.293       c-1.186-1.098-5.353-6.869-6.719-3.242c-0.939,2.493,2.971,6.725,4.242,8.67c2.057,3.147,3.716,6.547,5.554,9.826       c3.337,5.954,7.02,14.337,2.591,20.575c-0.638,1.026-8.212,15.216-8.79,16.278c0.488,4.455,18.99,9.705,20.455,11.365       c0,0,9.563-27.947,11.257-30.758c1.693-2.81,5.639-6.179,8.179-10.394c1.827-3.032,3.998-5.674,7.225-7.129       c1.065-0.48,2.313-0.949,2.724-2.042C335.067,244.307,333.764,242.81,332.364,242.199z" class="colore9946b svgShape"/><path fill="#d45c48" d="M300.017 261.56c1.157 1.341 2.514 2.36 4.18 2.98 1.602.596.711 3.077-.906 2.501-2.08-.74-3.945-1.997-5.305-3.747C296.935 261.942 298.888 260.25 300.017 261.56zM294.371 240.012c3.932-4.641 9.447-7.736 15.308-9.216.815-.206 1.052 1.069.246 1.278-5.727 1.485-10.5 4.599-14.64 8.766C294.794 241.336 293.913 240.553 294.371 240.012z" class="colord45c48 svgShape"/><path fill="#e9946b" d="M481.726,221.251c0.138,1.337,0.001,2.679,0.052,4.019c0.016,0.422-0.097,1.237,0.469,1.234       c0.43-0.003,0.833-0.789,1.013-1.085c0.47-0.775,0.763-1.643,1.13-2.468c0.636-1.431,1.177-2.903,1.677-4.386       c0.98-2.907,1.782-5.869,2.743-8.782c0.482-1.46,1.133-3.001,2.459-3.779c0.234-0.137,0.497-0.25,0.767-0.227       c0.999,0.082,1.264,1.719,1.416,2.479c0.324,1.623,0.005,2.924-0.267,4.477c-0.299,1.706-0.308,3.461-0.634,5.178       c-0.395,2.083-0.905,4.146-1.192,6.248c-0.144,1.051-1.087,3.181-0.975,4.243c0.038,0.364,0.149,0.706,0.359,0.995       c0.174,0.238,3.186-5.816,3.375-6.311c0.881-2.312,1.661-4.662,2.331-7.044c0.199-0.707,0.509-1.174,1.011-1.711       c0.502-0.536,1.229-0.913,1.957-0.814c0.911,0.125,1.59,0.97,1.807,1.864c0.217,0.893,0.069,1.831-0.091,2.736       c-0.429,2.431-0.931,4.85-1.505,7.251c-0.249,1.043-3.497,8.84-1.643,8.666c0.853-0.08,3.219-3.212,3.789-3.788       c1.156-1.169,5.131-7.226,6.685-3.599c1.067,2.491-2.716,6.971-3.921,9.007c-1.949,3.293-3.482,6.824-5.202,10.242       c-3.206,6.369-5.574,14.548-1.328,21.527c2.253,3.705,9.083,12.806,9.083,12.806c1.757,2.039-18.536,13.432-20.068,15.332       c0,0-10.987-27.981-12.836-30.761c-1.849-2.78-6.012-6.027-8.786-10.197c-1.995-3-4.322-5.587-7.668-6.921       c-1.104-0.44-2.394-0.86-2.862-1.953c-0.612-1.43,0.644-3.011,2.04-3.696c1.366-0.67,2.951-0.884,4.446-0.6       c1.569,0.298,2.985,1.113,4.487,1.658c1.502,0.545,3.255,0.795,4.638-0.005c1.17-0.676,1.831-1.955,2.431-3.165       c2.382-4.811,2.486-10.222,2.56-15.476c0.037-2.667,0.07-5.343,0.427-7.99c0.285-2.111,0.485-5.414,1.882-7.09       c0.558-0.669,1.585-1.152,2.279-0.626c0.215,0.163,0.361,0.399,0.486,0.638c1.103,2.111,0.851,4.599,0.9,6.897       C481.484,217.933,481.555,219.596,481.726,221.251z" class="colore9946b svgShape"/><path fill="#d45c48" d="M490.674 260.25c-1.115 1.416-2.45 2.513-4.115 3.219-1.601.679-.584 3.16 1.035 2.502 2.081-.847 3.921-2.209 5.223-4.049C493.825 260.499 491.763 258.867 490.674 260.25zM495.439 238.087c-4.208-4.54-9.955-7.438-15.98-8.677-.838-.172-1.022 1.134-.193 1.31 5.89 1.251 10.883 4.2 15.28 8.25C495.07 239.452 495.93 238.616 495.439 238.087z" class="colord45c48 svgShape"/><path fill="#6168a8" d="M354.649,354.569c21.277,0,91.414-2.627,92.727-1.839c1.314,0.788,15.104,71.529,15.227,72.834     c0.123,1.305-4.195,23.57-6.559,23.57c-2.364,0-122.941-10.357-117.945-14.535C353.073,422.079,354.649,354.569,354.649,354.569z     " class="color6168a8 svgShape"/><path fill="#aebfd1" d="M366.951,362.975c0-2.297-1.862-4.159-4.159-4.159s-4.159,1.862-4.159,4.159     c0,2.297,1.862,4.159,4.159,4.159S366.951,365.272,366.951,362.975z" class="coloraebfd1 svgShape"/><path fill="#aebfd1" d="M362.737 361.594c-1.69 0-3.456-.588-4.82-1.641-1.384-1.069-2.22-2.511-2.352-4.062-.188-2.203.269-3.558.672-4.753.188-.558.352-1.044.435-1.57-.248-.03-.701-.008-1.021.009-1.037.052-2.326.115-3.379-.531-1.793-1.1-2.137-4.116-1.923-5.486.04-.26.165-1.052.846-1.22h.001c2.447-.599 19.739-1.337 21.687-.496 1.311.567 1.669 2.482 1.345 4.079-.302 1.492-1.171 2.424-2.268 2.433-3.57.029-4.038.57-4.079.632-.05.206.219.748.479 1.272.583 1.174 1.381 2.781 1.135 5.144-.325 3.122-2.572 5.57-5.592 6.091C363.523 361.561 363.132 361.594 362.737 361.594zM356.33 348.008c.641 0 1.186.091 1.563.503.192.21.403.586.318 1.189-.098.699-.309 1.324-.513 1.929-.372 1.105-.757 2.247-.597 4.13.095 1.115.719 2.171 1.757 2.971 1.352 1.043 3.183 1.52 4.782 1.244 2.331-.403 4.067-2.303 4.32-4.73.199-1.918-.456-3.238-.983-4.298-.422-.849-.786-1.582-.581-2.372.312-1.206 1.972-1.733 5.551-1.762.31-.002.625-.495.768-1.197.223-1.102-.062-2.19-.446-2.356-1.42-.544-16.877-.134-20.399.513-.138.812.073 3.261 1.206 3.956.645.397 1.628.345 2.496.305C355.837 348.021 356.09 348.008 356.33 348.008zM351.562 343.837L351.562 343.837c.001 0 .001 0 .002 0C351.563 343.837 351.563 343.837 351.562 343.837zM446.117 359.819c0-2.297-1.862-4.159-4.159-4.159-2.297 0-4.159 1.862-4.159 4.159 0 2.297 1.862 4.159 4.159 4.159C444.255 363.978 446.117 362.116 446.117 359.819z" class="coloraebfd1 svgShape"/><path fill="#aebfd1" d="M441.688,358.494c-1.828,0-3.75-0.72-5.162-1.962c-1.312-1.155-2.054-2.648-2.086-4.203     c-0.045-2.211,0.496-3.533,0.975-4.701c0.223-0.545,0.418-1.019,0.534-1.539c-0.245-0.045-0.699-0.052-1.02-0.057     c-1.037-0.015-2.328-0.033-3.338-0.746c-1.718-1.212-1.868-4.244-1.568-5.597c0.057-0.258,0.231-1.04,0.923-1.164h0.001     c2.482-0.439,19.782-0.072,21.675,0.895c1.273,0.65,1.507,2.583,1.081,4.157c-0.397,1.469-1.322,2.358-2.419,2.282     c-3.565-0.197-4.067,0.31-4.112,0.37c-0.063,0.202,0.171,0.76,0.397,1.3c0.507,1.208,1.2,2.863,0.804,5.207     c-0.524,3.095-2.924,5.394-5.97,5.721C442.167,358.482,441.928,358.494,441.688,358.494z M431.53,339.999     c-0.191,0.802-0.136,3.259,0.951,4.026c0.619,0.437,1.603,0.452,2.47,0.464c0.968,0.014,1.805,0.026,2.285,0.625     c0.178,0.222,0.365,0.611,0.242,1.207c-0.143,0.692-0.394,1.302-0.635,1.892c-0.442,1.078-0.899,2.193-0.859,4.084     c0.023,1.118,0.577,2.211,1.562,3.076c1.283,1.129,3.083,1.722,4.692,1.549c2.352-0.252,4.207-2.038,4.614-4.444     c0.322-1.902-0.249-3.261-0.706-4.352c-0.366-0.874-0.682-1.629-0.428-2.404c0.389-1.184,2.081-1.602,5.652-1.403     c0.301-0.009,0.656-0.454,0.843-1.144c0.293-1.086,0.08-2.189-0.294-2.38C450.539,340.16,435.083,339.581,431.53,339.999z" class="coloraebfd1 svgShape"/><path fill="#6168a8" d="M351.759 303.298c.469 10.558 1.314 38.662 1.839 42.077.525 3.415 14.973.525 16.549-1.313 1.576-1.839.525-44.131-1.576-44.131S351.559 298.793 351.759 303.298zM427.937 299.803c.779 13.788 2.299 37.035 4.4 40.187 2.101 3.152 14.513 1.97 16.089 1.97 1.576 0-1.839-39.922-3.678-42.157C442.91 297.567 427.826 297.828 427.937 299.803z" class="color6168a8 svgShape"/><path fill="#333a74" d="M404.836,430.602c-12.098,0-27.236-0.557-28.284-3.087c-1.187-2.863-4.201-40.668-0.724-46.7     c0.402-0.696,0.92-1.091,1.539-1.173l0,0c12.454-1.65,56.919-2.54,59.201,0.388c2.174,2.787,3.476,42.195,2.214,46.29     c-0.288,0.938-0.963,3.131-19.845,4.024C416.765,430.447,411.224,430.602,404.836,430.602z M378.406,426.605     c2.856,1.984,34.314,2.863,50.834,0.878c6.676-0.804,7.53-1.731,7.606-1.833c1.441-4.713-0.565-41.062-1.88-44.289     c-3.456-1.581-41.919-1.7-57.243,0.311C374.8,384.274,376.894,422.292,378.406,426.605z" class="color333a74 svgShape"/><path fill="#978c50" d="M284.864,343.273c-0.348,0-0.687-0.176-0.88-0.496c-0.295-0.486-0.14-1.118,0.346-1.413     c3.162-1.918,14.131-9.568,22.539-27.462c0.241-0.515,0.854-0.738,1.368-0.493c0.514,0.241,0.735,0.854,0.493,1.368     c-8.652,18.416-20.047,26.352-23.334,28.346C285.23,343.225,285.046,343.273,284.864,343.273z" class="color978c50 svgShape"/><path fill="#978c50" d="M291.517 347.991c-.259 0-.518-.098-.718-.293-.407-.397-.415-1.048-.019-1.455 10.144-10.407 11.772-24.025 11.788-24.161.063-.564.59-.964 1.137-.908.565.063.971.572.908 1.137-.065.585-1.727 14.46-12.359 25.368C292.052 347.886 291.785 347.991 291.517 347.991zM347.208 332.152c-.042 0-.083-.003-.125-.008-.564-.068-.966-.581-.898-1.145 1.229-10.139 1.288-19.412.177-27.562-.077-.563.318-1.082.88-1.159.574-.074 1.081.318 1.159.88 1.135 8.324 1.077 17.774-.173 28.087C348.165 331.768 347.721 332.152 347.208 332.152zM326.718 375.562c-.387 0-.757-.22-.932-.593-.241-.514-.019-1.127.496-1.368 7.713-3.611 10.809-12.998 10.839-13.093.175-.541.753-.839 1.294-.665.541.173.839.751.666 1.293-.135.42-3.387 10.331-11.927 14.329C327.012 375.531 326.863 375.562 326.718 375.562zM515.147 351.045c-.18 0-.363-.048-.528-.147-10.943-6.56-18.807-17.073-23.373-31.246-.174-.541.123-1.121.664-1.295.544-.173 1.121.124 1.295.664 4.408 13.685 11.969 23.816 22.472 30.112.487.292.645.924.354 1.412C515.837 350.866 515.496 351.045 515.147 351.045z" class="color978c50 svgShape"/><path fill="#978c50" d="M523.641 344.478c-.083 0-.168-.01-.253-.032-14.62-3.699-28.428-16.342-29.009-16.877-.417-.385-.443-1.037-.058-1.454.387-.416 1.038-.442 1.454-.058.138.128 14.012 12.826 28.117 16.395.551.139.885.699.745 1.249C524.52 344.168 524.101 344.478 523.641 344.478zM469.704 377.84c-.568 0-1.029-.46-1.029-1.029 0-10.517-1.835-26.268-2.821-34.729-.401-3.44-.594-5.117-.594-5.638 0-.568.461-1.029 1.029-1.029.569 0 1.029.461 1.029 1.029 0 .425.255 2.62.58 5.4.99 8.503 2.835 24.331 2.835 34.967C470.733 377.38 470.272 377.84 469.704 377.84zM463.661 318.24c-.447 0-.857-.293-.987-.743-.031-.107-3.157-10.783-8.23-16.978-.36-.44-.296-1.088.144-1.448.439-.36 1.087-.296 1.448.144 5.344 6.525 8.483 17.257 8.614 17.71.158.546-.157 1.116-.703 1.274C463.853 318.226 463.756 318.24 463.661 318.24z" class="color978c50 svgShape"/></g><g><path fill="#acbdcf" d="M374.04,50.687l-1.933-2.636c-0.922-1.277-1.565-2.114-1.925-2.511    c-0.729-0.872-1.119-1.726-1.174-2.561c-0.038-0.582,0.127-1.221,0.502-1.917c0.372-0.694,0.79-1.35,1.252-1.967    c2.619-3.439,5.647-6.423,9.081-8.955c3.433-2.529,7.988-3.94,13.665-4.233c3.918-0.259,7.242,0.611,9.971,2.607    c2.727,1.999,4.786,4.312,6.176,6.941c1.387,2.631,2.137,4.779,2.248,6.447c0.298,4.503-0.509,8.451-2.42,11.843    c-1.911,3.393-4.27,6.042-7.075,7.943c-2.807,1.903-4.488,3.082-5.042,3.537c-0.88,0.645-1.568,1.633-2.065,2.963    c-0.499,1.333-0.72,2.415-0.665,3.248l0.605,7.246c0.159,1.163,0.031,2.071-0.385,2.727c-0.418,0.656-0.96,1.006-1.627,1.05    l-7.871,0.646c-1.512-0.067-2.369-0.974-2.567-2.72c-0.509-3.902-0.811-6.562-0.905-7.98c-0.387-7.092,4.661-14.336,15.145-21.73    c0.878-0.643,1.552-1.526,2.023-2.646c0.47-1.119,0.67-2.221,0.598-3.306c-0.257-1.322-0.87-2.706-1.845-4.149    c-0.974-1.443-2.508-2.136-4.597-2.083c-2.169,0.144-4.897,1.643-8.182,4.498c-3.287,2.856-5.943,5.44-7.967,7.751    c-0.39,0.446-0.834,0.684-1.334,0.717C375.056,51.499,374.495,51.243,374.04,50.687z M394.105,93.831    c0.75-0.05,1.452,0.114,2.105,0.489c0.653,0.377,1.007,0.981,1.062,1.814l0.597,7.121c0.044,0.668-0.266,1.38-0.927,2.134    c-0.663,0.756-1.368,1.158-2.119,1.208l-3.619,0.365c-0.918,0.061-1.966,0.045-3.144-0.043c-0.84-0.027-1.634-0.646-2.384-1.852    c-0.378-0.644-0.652-2.259-0.823-4.845c-0.077-1.167-0.084-2.507-0.015-4.019c-0.022-0.332,0.203-0.724,0.676-1.175    c0.473-0.45,0.875-0.686,1.209-0.708c0.911-0.143,2.245-0.252,3.998-0.327C392.477,93.919,393.604,93.864,394.105,93.831z" class="coloracbdcf svgShape"/></g><g><path fill="#acbdcf" d="M471.238,59.522l-1.33-2.986c-0.63-1.444-1.081-2.398-1.349-2.862    c-0.527-1.007-0.728-1.924-0.605-2.751c0.086-0.577,0.383-1.166,0.897-1.767c0.511-0.599,1.059-1.152,1.64-1.657    c3.289-2.806,6.88-5.08,10.773-6.826c3.891-1.744,8.642-2.157,14.251-1.239c3.884,0.577,6.948,2.132,9.192,4.662    c2.241,2.532,3.763,5.229,4.563,8.092c0.797,2.865,1.076,5.124,0.83,6.777c-0.664,4.463-2.289,8.151-4.876,11.061    c-2.587,2.91-5.454,4.999-8.598,6.262c-3.146,1.265-5.039,2.06-5.678,2.387c-0.997,0.444-1.879,1.263-2.647,2.458    c-0.77,1.197-1.215,2.208-1.338,3.033l-0.945,7.21c-0.091,1.171-0.409,2.03-0.955,2.583c-0.547,0.552-1.152,0.779-1.812,0.681    l-7.83-1.038c-1.463-0.386-2.108-1.454-1.932-3.202c0.33-3.921,0.599-6.584,0.808-7.99c1.126-7.013,7.595-13.021,19.409-18.025    c0.994-0.442,1.84-1.162,2.538-2.157c0.696-0.994,1.125-2.028,1.285-3.104c0.03-1.346-0.276-2.829-0.923-4.446    c-0.646-1.617-1.998-2.62-4.051-3.01c-2.15-0.32-5.134,0.567-8.95,2.661c-3.818,2.094-6.961,4.056-9.429,5.885    c-0.476,0.353-0.96,0.491-1.456,0.417C472.058,60.531,471.564,60.162,471.238,59.522z M481.698,105.94    c0.744,0.111,1.395,0.419,1.954,0.924c0.558,0.507,0.776,1.173,0.653,1.998l-0.927,7.086c-0.098,0.662-0.553,1.292-1.358,1.889    c-0.808,0.599-1.583,0.842-2.327,0.731l-3.614-0.411c-0.911-0.135-1.931-0.372-3.063-0.709c-0.815-0.204-1.461-0.978-1.937-2.316    c-0.233-0.71-0.158-2.346,0.223-4.91c0.172-1.156,0.45-2.468,0.838-3.93c0.049-0.329,0.352-0.664,0.91-1.005    c0.557-0.339,1.001-0.485,1.332-0.436c0.921,0.054,2.247,0.229,3.977,0.528C480.088,105.681,481.201,105.866,481.698,105.94z" class="coloracbdcf svgShape"/></g><g><path fill="#acbdcf" d="M272.025,68.312l-2.561-2.031c-1.227-0.988-2.068-1.625-2.52-1.913    c-0.934-0.649-1.535-1.369-1.809-2.159c-0.191-0.552-0.2-1.211-0.023-1.982c0.176-0.768,0.405-1.511,0.687-2.228    c1.617-4.009,3.748-7.687,6.391-11.036c2.642-3.347,6.663-5.911,12.06-7.694c3.711-1.286,7.146-1.325,10.306-0.121    c3.158,1.207,5.756,2.894,7.79,5.062c2.033,2.171,3.324,4.045,3.871,5.623c1.477,4.264,1.743,8.285,0.796,12.062    c-0.947,3.777-2.522,6.955-4.724,9.53c-2.204,2.577-3.513,4.159-3.928,4.744c-0.678,0.854-1.081,1.989-1.209,3.403    c-0.129,1.417-0.056,2.519,0.217,3.308l2.499,6.829c0.461,1.08,0.577,1.989,0.349,2.732c-0.23,0.743-0.66,1.224-1.291,1.442    l-7.421,2.704c-1.476,0.335-2.542-0.313-3.194-1.945c-1.522-3.629-2.516-6.114-2.982-7.457    c-2.248-6.738,0.707-15.058,8.863-24.961c0.677-0.852,1.094-1.882,1.252-3.087c0.158-1.203,0.059-2.319-0.297-3.346    c-0.597-1.207-1.554-2.38-2.876-3.514c-1.321-1.134-2.984-1.397-4.984-0.794c-2.054,0.712-4.289,2.879-6.703,6.501    c-2.416,3.623-4.294,6.817-5.635,9.581c-0.258,0.533-0.624,0.88-1.098,1.044C273.219,68.827,272.611,68.728,272.025,68.312z     M302.779,104.619c0.71-0.246,1.431-0.274,2.16-0.085c0.729,0.191,1.23,0.681,1.503,1.469l2.458,6.71    c0.219,0.633,0.108,1.401-0.33,2.303c-0.439,0.904-1.014,1.479-1.724,1.725l-3.394,1.309c-0.87,0.301-1.884,0.563-3.043,0.789    c-0.817,0.196-1.747-0.191-2.789-1.157c-0.535-0.521-1.226-2.007-2.074-4.455c-0.383-1.105-0.743-2.396-1.076-3.872    c-0.109-0.315,0.005-0.752,0.341-1.312c0.337-0.558,0.663-0.893,0.979-1.003c0.841-0.379,2.098-0.837,3.769-1.372    C301.233,105.134,302.305,104.783,302.779,104.619z" class="coloracbdcf svgShape"/></g><g><path fill="#acbdcf" d="M434.569,109.232c-0.133-1.223-0.145-2.041-0.04-2.456c0.106-0.414,0.36-0.67,0.767-0.769    c0.405-0.098,1.301-0.217,2.69-0.357c0.571-0.023,1.554-0.043,2.947-0.06c1.392-0.015,2.657-0.129,3.796-0.34    c0.813-0.114,1.369-0.056,1.667,0.177c0.296,0.234,0.503,0.799,0.623,1.695c0.061,1.472,0.147,2.575,0.259,3.308l0.269,3.553    c0.051,1.227-0.116,2.156-0.5,2.786c-0.385,0.63-0.944,0.961-1.68,0.991c-0.491,0.02-1.246,0.093-2.265,0.216    c-1.02,0.124-2.225,0.214-3.614,0.271l-2.091-0.037c-1.479-0.103-2.29-0.847-2.428-2.236l-0.131-3.19    C434.771,111.15,434.68,109.965,434.569,109.232z M442.171,40.089c1.145-0.047,1.75,0.708,1.814,2.261l1.754,39.628l0.353,8.589    c0.03,0.736-0.05,1.314-0.236,1.73c-0.188,0.419-0.383,0.692-0.581,0.823c-0.2,0.131-0.341,0.198-0.422,0.202l-9.448,0.389    c-0.491,0.02-0.87-0.229-1.137-0.752c-0.268-0.521-0.415-1.109-0.442-1.764c-1.104-26.83-1.725-42.905-1.862-48.227    c-0.067-1.635,0.758-2.489,2.476-2.56c1.304-0.135,2.837-0.219,4.599-0.251C440.8,40.126,441.844,40.103,442.171,40.089z" class="coloracbdcf svgShape"/></g><g><path fill="#acbdcf" d="M341.856,127.247c-0.257-1.204-0.353-2.016-0.29-2.44c0.064-0.422,0.29-0.703,0.685-0.843    c0.393-0.139,1.272-0.348,2.639-0.629c0.566-0.082,1.541-0.201,2.926-0.36c1.382-0.157,2.629-0.399,3.741-0.726    c0.797-0.197,1.356-0.196,1.676,0.006c0.318,0.202,0.582,0.744,0.792,1.623c0.21,1.458,0.409,2.547,0.595,3.264l0.63,3.507    c0.175,1.215,0.104,2.156-0.213,2.823c-0.319,0.666-0.841,1.052-1.57,1.157c-0.486,0.07-1.23,0.22-2.231,0.446    c-1.002,0.228-2.191,0.44-3.568,0.639l-2.084,0.177c-1.482,0.049-2.364-0.609-2.643-1.976l-0.456-3.16    C342.253,129.135,342.041,127.965,341.856,127.247z M342.363,57.69c1.134-0.164,1.813,0.525,2.035,2.064l5.788,39.242l1.228,8.508    c0.105,0.729,0.085,1.312-0.058,1.745c-0.145,0.436-0.31,0.727-0.494,0.878c-0.186,0.151-0.32,0.232-0.399,0.244l-9.359,1.351    c-0.486,0.07-0.889-0.139-1.208-0.632c-0.319-0.491-0.526-1.061-0.619-1.71c-3.836-26.577-6.095-42.505-6.774-47.786    c-0.234-1.62,0.5-2.554,2.202-2.799c1.284-0.267,2.8-0.507,4.549-0.719C341.002,57.867,342.038,57.736,342.363,57.69z" class="coloracbdcf svgShape"/></g></svg>