<svg width="145" height="31" viewBox="0 0 145 31" fill="none" xmlns="http://www.w3.org/2000/svg">
<path d="M34.7021 27H31.3037C31.2256 27 31.1865 26.9512 31.1865 26.8535L31.2451 6.24316C31.2451 6.16504 31.2842 6.12598 31.3623 6.12598H35.0244C35.1025 6.12598 35.1709 6.16504 35.2295 6.24316L37.9688 10.1982L40.6934 6.24316C40.752 6.16504 40.8252 6.12598 40.9131 6.12598H44.5898C44.6777 6.12598 44.7217 6.16504 44.7217 6.24316L44.7803 26.8535C44.7803 26.9512 44.7412 27 44.6631 27H41.2646C41.1865 27 41.1475 26.9512 41.1475 26.8535L41.1182 11.5459L37.9688 16.1162L34.8486 11.5459L34.8193 26.8535C34.8193 26.9512 34.7803 27 34.7021 27ZM50.8447 27H47.4463C47.3486 27 47.2998 26.9512 47.2998 26.8535L47.3291 6.24316C47.3291 6.16504 47.3682 6.12598 47.4463 6.12598H50.8154C50.8936 6.12598 50.9326 6.16504 50.9326 6.24316L50.9619 26.8535C50.9619 26.9512 50.9229 27 50.8447 27ZM57.1143 27H53.7158C53.6377 27 53.5986 26.9512 53.5986 26.8535L53.6572 6.24316C53.6572 6.16504 53.6963 6.12598 53.7744 6.12598H59.8389C60.9229 6.12598 61.9189 6.38965 62.8271 6.91699C63.7354 7.44434 64.458 8.15234 64.9951 9.04102C65.542 9.92969 65.8154 10.9355 65.8154 12.0586C65.8154 12.791 65.7031 13.4551 65.4785 14.0508C65.2539 14.6465 64.9902 15.1494 64.6875 15.5596C64.3945 15.9697 64.126 16.2725 63.8818 16.4678C64.9658 17.6689 65.5078 19.0801 65.5078 20.7012L65.5371 26.8535C65.5371 26.9512 65.4883 27 65.3906 27H61.9922C61.9141 27 61.875 26.9707 61.875 26.9121V20.7012C61.875 19.9785 61.6211 19.3535 61.1133 18.8262C60.6055 18.2988 59.9805 18.0352 59.2383 18.0352H57.2607L57.2314 26.8535C57.2314 26.9512 57.1924 27 57.1143 27ZM59.8389 9.71484H57.2607V14.4316H59.8389C60.4541 14.4316 61.001 14.2021 61.4795 13.7432C61.9678 13.2842 62.2119 12.7227 62.2119 12.0586C62.2119 11.4238 61.9775 10.877 61.5088 10.418C61.04 9.94922 60.4834 9.71484 59.8389 9.71484ZM74.1211 18.3281H68.3203C68.2227 18.3281 68.1738 18.2891 68.1738 18.2109V14.9443C68.1738 14.8662 68.2227 14.8271 68.3203 14.8271H74.1211C74.2188 14.8271 74.2676 14.8662 74.2676 14.9443V18.2109C74.2676 18.2891 74.2188 18.3281 74.1211 18.3281ZM82.6758 26.9707L77.2998 27C77.2021 27 77.1533 26.9512 77.1533 26.8535L77.2119 6.24316C77.2119 6.16504 77.251 6.12598 77.3291 6.12598L82.9395 6.09668C84.0527 6.06738 85.0586 6.32129 85.957 6.8584C86.8652 7.39551 87.5879 8.12305 88.125 9.04102C88.6719 9.94922 88.9453 10.9551 88.9453 12.0586V20.6719C88.9453 21.8242 88.667 22.8789 88.1104 23.8359C87.5439 24.7832 86.792 25.54 85.8545 26.1064C84.917 26.6631 83.8574 26.9512 82.6758 26.9707ZM82.9395 9.68555L80.8447 9.71484L80.8154 23.3086H82.6758C83.418 23.3086 84.043 23.0498 84.5508 22.5322C85.0586 22.0146 85.3125 21.3945 85.3125 20.6719V12.0293C85.3125 11.3945 85.0781 10.8428 84.6094 10.374C84.1406 9.89551 83.584 9.66602 82.9395 9.68555ZM90.293 26.8535L94.0137 6.24316C94.0332 6.16504 94.082 6.12598 94.1602 6.12598H98.5107C98.5889 6.12598 98.6377 6.16504 98.6572 6.24316L102.231 26.8535C102.241 26.9512 102.202 27 102.114 27H98.7891C98.6914 27 98.6377 26.9512 98.6279 26.8535L98.3057 24.6562H94.2188L93.8965 26.8535C93.8867 26.9512 93.8379 27 93.75 27H90.4102C90.332 27 90.293 26.9512 90.293 26.8535ZM96.167 13.0254L94.8193 21.4482H97.7051L96.4746 13.0254L96.2988 11.9121L96.167 13.0254ZM107.622 27H104.224C104.146 27 104.106 26.9512 104.106 26.8535L104.165 6.24316C104.165 6.16504 104.204 6.12598 104.282 6.12598H110.347C111.431 6.12598 112.427 6.38965 113.335 6.91699C114.243 7.44434 114.966 8.15234 115.503 9.04102C116.05 9.92969 116.323 10.9355 116.323 12.0586C116.323 12.791 116.211 13.4551 115.986 14.0508C115.762 14.6465 115.498 15.1494 115.195 15.5596C114.902 15.9697 114.634 16.2725 114.39 16.4678C115.474 17.6689 116.016 19.0801 116.016 20.7012L116.045 26.8535C116.045 26.9512 115.996 27 115.898 27H112.5C112.422 27 112.383 26.9707 112.383 26.9121V20.7012C112.383 19.9785 112.129 19.3535 111.621 18.8262C111.113 18.2988 110.488 18.0352 109.746 18.0352H107.769L107.739 26.8535C107.739 26.9512 107.7 27 107.622 27ZM110.347 9.71484H107.769V14.4316H110.347C110.962 14.4316 111.509 14.2021 111.987 13.7432C112.476 13.2842 112.72 12.7227 112.72 12.0586C112.72 11.4238 112.485 10.877 112.017 10.418C111.548 9.94922 110.991 9.71484 110.347 9.71484ZM124.131 27.293C123.066 27.293 122.085 27.0195 121.187 26.4727C120.298 25.9258 119.58 25.1982 119.033 24.29C118.496 23.3721 118.228 22.3662 118.228 21.2725L118.257 11.7656C118.257 10.6523 118.525 9.65137 119.062 8.7627C119.59 7.86426 120.303 7.14648 121.201 6.60938C122.1 6.0625 123.076 5.78906 124.131 5.78906C125.225 5.78906 126.206 6.05762 127.075 6.59473C127.954 7.13184 128.657 7.85449 129.185 8.7627C129.722 9.66113 129.99 10.6621 129.99 11.7656L130.02 21.2725C130.02 22.3662 129.756 23.3672 129.229 24.2754C128.691 25.1934 127.979 25.9258 127.09 26.4727C126.201 27.0195 125.215 27.293 124.131 27.293ZM124.131 23.6748C124.736 23.6748 125.264 23.4307 125.713 22.9424C126.162 22.4443 126.387 21.8877 126.387 21.2725L126.357 11.7656C126.357 11.1016 126.147 10.54 125.728 10.0811C125.308 9.62207 124.775 9.39258 124.131 9.39258C123.516 9.39258 122.988 9.61719 122.549 10.0664C122.109 10.5156 121.89 11.082 121.89 11.7656V21.2725C121.89 21.9268 122.109 22.4932 122.549 22.9717C122.988 23.4404 123.516 23.6748 124.131 23.6748ZM137.783 27.293C136.699 27.293 135.723 27.0244 134.854 26.4873C133.975 25.9502 133.267 25.2275 132.729 24.3193C132.202 23.4111 131.938 22.3955 131.938 21.2725V11.7656C131.938 10.6719 132.207 9.67578 132.744 8.77734C133.271 7.86914 133.979 7.14648 134.868 6.60938C135.757 6.0625 136.729 5.78906 137.783 5.78906C138.887 5.78906 139.883 6.05273 140.771 6.58008C141.66 7.11719 142.363 7.83496 142.881 8.7334C143.408 9.63184 143.672 10.6426 143.672 11.7656V13.1426C143.672 13.2207 143.623 13.2598 143.525 13.2598H140.156C140.078 13.2598 140.039 13.2207 140.039 13.1426V12C140.039 11.2383 139.824 10.6084 139.395 10.1104C138.965 9.6123 138.428 9.36328 137.783 9.36328C137.207 9.36328 136.694 9.60254 136.245 10.0811C135.796 10.5596 135.571 11.1211 135.571 11.7656V21.2725C135.571 21.9268 135.791 22.4932 136.23 22.9717C136.67 23.4404 137.188 23.6748 137.783 23.6748C138.428 23.6748 138.965 23.4453 139.395 22.9863C139.824 22.5176 140.039 21.9463 140.039 21.2725V19.793H137.944C137.837 19.793 137.783 19.7441 137.783 19.6465V16.292C137.783 16.1943 137.837 16.1455 137.944 16.1455H143.555C143.633 16.1455 143.672 16.1943 143.672 16.292V21.2725C143.672 22.3955 143.408 23.4111 142.881 24.3193C142.344 25.2275 141.636 25.9502 140.757 26.4873C139.878 27.0244 138.887 27.293 137.783 27.293Z" fill="white"/>
<path d="M3.38757 0H0V27H3.38757V0Z" fill="white"/>
<path d="M23.7129 0H20.3254V27H23.7129V0Z" fill="white"/>
<path d="M13.5503 0H10.1627V5.0625H13.5503V0Z" fill="white"/>
<path d="M13.5503 21.9456H10.1627V26.9919H13.5503V21.9456Z" fill="white"/>
<path d="M13.5503 10.125H10.1627V16.875H13.5503V10.125Z" fill="white"/>
</svg>
